<svg height="96" viewBox="0 0 96 96" width="96" xmlns="http://www.w3.org/2000/svg"><path d="M88 48a4 4 0 0 0-4 4v28c0 2.21-1.79 4-4 4H16c-2.21 0-4-1.79-4-4V16c0-2.21 1.79-4 4-4h28a4 4 0 0 0 0-8H16C9.373 4 4 9.373 4 16v64c0 6.627 5.373 12 12 12h64c6.627 0 12-5.373 12-12V52a4 4 0 0 0-4-4z"/><path d="M91.996 7.958a4.016 4.016 0 0 0-.075-.742c-.023-.112-.065-.216-.097-.325-.04-.142-.074-.285-.131-.423-.05-.122-.12-.231-.182-.346-.062-.115-.113-.234-.187-.344a4.065 4.065 0 0 0-.407-.499c-.032-.035-.055-.075-.089-.108-.031-.031-.067-.051-.1-.081a3.998 3.998 0 0 0-.509-.416c-.108-.072-.226-.123-.339-.184-.116-.062-.228-.133-.35-.184-.139-.058-.283-.091-.427-.132-.107-.031-.21-.073-.321-.095A3.954 3.954 0 0 0 87.999 4H64a4 4 0 0 0 0 8h14.343l-32.77 32.77a4 4 0 1 0 5.656 5.656L84 17.656V32a4 4 0 0 0 8 0V8c0-.014-.004-.027-.004-.042z"/></svg>
