<svg xmlns="http://www.w3.org/2000/svg" viewBox="0 0 152.91 40.06"><defs><style>.cls-1{fill:#5d9b38;fill-rule:evenodd;}</style></defs><title>aura-logo</title><g id="Layer_2" data-name="Layer 2"><g id="Layer_1-2" data-name="Layer 1"><path class="cls-1" d="M7.47,32.23l-.8,3.83c-.17.88-.25,1.64.13,1.94a12.72,12.72,0,0,0,2.74,1H4.86l2.61-6.82Z"/><path class="cls-1" d="M121.8,32.23l-.8,3.83c-.17.88-.25,1.64.13,1.94a12.5,12.5,0,0,0,2.74,1h-4.68l2.61-6.82Z"/><path class="cls-1" d="M9.54,39.3H4.86a.33.33,0,0,1-.21-.08.49.49,0,0,1,0-.21l2.61-6.87A.21.21,0,0,1,7.51,32a.23.23,0,0,1,.17.29l-.8,3.83c-.08.34-.29,1.44,0,1.69a4.52,4.52,0,0,0,1.39.59l1.27.42a.27.27,0,0,1,.17.25c0,.13-.09.21-.21.21Zm-4.3-.46H8.1a4.51,4.51,0,0,1-1.39-.63c-.5-.42-.38-1.31-.21-2.19l.17-.89L5.24,38.84Z"/><path class="cls-1" d="M3,39.09H.23c-.13-.38,0-.59.46-.63A5.57,5.57,0,0,0,2.8,35.81L17.46,3.71,33.38,39.05H27.73l-.08-.51,3.2-.29-6.7-14.58H9.37A156.56,156.56,0,0,0,3,39.09ZM23.56,22.58,17.08,6.49,9.87,22.58Z"/><path class="cls-1" d="M33.38,39.3H27.73a.26.26,0,0,1-.25-.21l-.08-.5c0-.09,0-.13,0-.17a.22.22,0,0,1,.17-.09l2.86-.25L23.94,23.93H10.46A157.92,157.92,0,0,0,4.19,39.18c-.05.08-.13.17-.21.17H.27c-.08,0-.21-.09-.21-.17a.65.65,0,0,1,0-.64.82.82,0,0,1,.55-.29l.12-.08a5.07,5.07,0,0,0,1.86-2.45L17.29,3.62a.22.22,0,0,1,.21-.12.24.24,0,0,1,.21.12L33.63,39a.16.16,0,0,1,0,.21.37.37,0,0,1-.25.12Zm-5.44-.46H33L17.46,4.3,3,35.93a5.88,5.88,0,0,1-2,2.61l-.17.13a.17.17,0,0,1-.13,0,.28.28,0,0,0-.25.09v0H2.84C5,32.94,7,28.1,9.16,23.59a.23.23,0,0,1,.21-.13H24.15a.23.23,0,0,1,.21.13l6.7,14.58a.16.16,0,0,1,0,.21.21.21,0,0,1-.17.12l-2.95.34Zm-4.38-16H9.92a.22.22,0,0,1-.21-.12c-.05-.09-.05-.17,0-.21l7-16a.24.24,0,0,1,.21-.13h0a.23.23,0,0,1,.21.17l6.7,16c0,.08,0,.17,0,.21s-.13.08-.22.08Zm-12.34-.5h12L17.5,8.55,11.22,22.33Z"/><path class="cls-1" d="M38.27,39.09H34.68L18,2.44,19,.25,36,37.53c.17.34.38.47,1.26.8.68.17.89.3,1.06.76Z"/><path class="cls-1" d="M38.27,39.3H34.68a.25.25,0,0,1-.21-.12L17.79,2.53a.2.2,0,0,1,0-.21l1-2.19A.24.24,0,0,1,19,0a.24.24,0,0,1,.21.13L36.16,37.41c.08.21.21.33,1.14.67.67.21,1,.38,1.18.93a.18.18,0,0,1,0,.21s-.08.08-.16.08Zm-3.41-.46h3a2,2,0,0,0-.68-.34c-.88-.29-1.18-.5-1.39-.92L19.06.76l-.72,1.6L34.86,38.84Z"/><path class="cls-1" d="M124,39.3h-4.68a.36.36,0,0,1-.21-.08.49.49,0,0,1,0-.21l2.61-6.87a.22.22,0,0,1,.3-.12.24.24,0,0,1,.17.29l-.8,3.83c-.09.34-.3,1.44,0,1.69a4.42,4.42,0,0,0,1.39.59l1.26.42a.26.26,0,0,1,.17.25.19.19,0,0,1-.21.21Zm-4.34-.46h2.87a4.3,4.3,0,0,1-1.39-.63c-.51-.42-.38-1.31-.22-2.19l.17-.89-1.43,3.71Z"/><path class="cls-1" d="M117.38,39.09h-2.74c-.13-.38,0-.59.46-.63a5.57,5.57,0,0,0,2.11-2.65l14.66-32.1,15.92,35.34h-5.64l-.09-.51,3.21-.29-6.74-14.58H123.74a158.72,158.72,0,0,0-6.36,15.42Zm20.56-16.51L131.45,6.49l-7.2,16.09Z"/><path class="cls-1" d="M147.79,39.3h-5.64a.26.26,0,0,1-.25-.21l-.09-.5c0-.09,0-.13,0-.17s.09-.09.17-.09l2.87-.25-6.53-14.15H124.84a160.37,160.37,0,0,0-6.28,15.25c0,.08-.13.17-.21.17h-3.71c-.08,0-.21-.09-.21-.17a.65.65,0,0,1,0-.64.82.82,0,0,1,.55-.29l.13-.08c.8-.59,1-.8,1.85-2.45l14.66-32.1a.24.24,0,0,1,.42,0L148,39a.16.16,0,0,1,0,.21c-.08.08-.12.12-.21.12Zm-5.47-.46h5.05L131.83,4.3,117.38,35.93a5.88,5.88,0,0,1-2,2.61l-.17.13a.16.16,0,0,1-.13,0,.29.29,0,0,0-.25.09v0h2.36c2.15-5.9,4.17-10.74,6.32-15.25a.23.23,0,0,1,.21-.13h14.79a.24.24,0,0,1,.21.13l6.69,14.58a.16.16,0,0,1,0,.21.21.21,0,0,1-.16.12l-3,.34Zm-4.38-16H124.29a.22.22,0,0,1-.21-.12c0-.09,0-.17,0-.21l7-16a.24.24,0,0,1,.21-.13h0a.22.22,0,0,1,.21.17l6.7,16c0,.08,0,.17,0,.21a.36.36,0,0,1-.21.08Zm-12.3-.5h12L131.45,8.59l-5.81,13.74Z"/><path class="cls-1" d="M152.68,39.09H149.1L132.42,2.44l1-2.19,16.93,37.28c.17.34.38.47,1.27.8.67.17.88.3,1.05.76Z"/><path class="cls-1" d="M152.68,39.3H149.1a.22.22,0,0,1-.21-.12L132.21,2.53a.2.2,0,0,1,0-.21l1-2.19a.23.23,0,0,1,.42,0l16.93,37.28c.09.21.21.33,1.14.67.68.21,1,.38,1.18.93a.19.19,0,0,1,0,.21.23.23,0,0,1-.17.08Zm-3.41-.46h3a2,2,0,0,0-.68-.34c-.88-.29-1.17-.5-1.38-.92L133.47.76l-.72,1.6,16.52,36.48Z"/><path class="cls-1" d="M44.92.67a3.42,3.42,0,0,0-.42,1.69c0,.67,0,1.3,0,1.73V36.57c0,.63-.84-1.18-2-3l-.17-30c0-1.94-.47-2.19-3.62-2.44l0-.47,6.32,0Z"/><path class="cls-1" d="M57.64,39.81c-2.06.38-7.45.59-11.41-1.39-2.49-1.43-4.17-2.91-4.13-7.25L42,3.54c0-1.69-.22-1.94-3.42-2.19a.23.23,0,0,1-.21-.21l0-.47c0-.08,0-.12.08-.16A.31.31,0,0,1,38.6.42H45a.24.24,0,0,1,.21.13.28.28,0,0,1,0,.25,4.36,4.36,0,0,0-.43,1.6c0,.84,0,1.48,0,1.73l0,26.87c.34,5.4,5.52,7.8,11.46,7.46,6.06-.76,7.33-2.57,8-2.57.29,0-2.32,2.82-6.45,3.92ZM44.16,36.4V4.13c0-.25,0-.89.05-1.73A4.55,4.55,0,0,1,44.5,1H39c2.78.25,3.42.59,3.42,2.65l.08,29.2,1.64,3.58Z"/><path class="cls-1" d="M45.76,31.64c0-11.88-.25-16.35-.21-28.23a4.09,4.09,0,0,1,1-2.74h2.83c-1.44.64-1.65,1.06-1.94,2.57V31.72l-1.65-.08Z"/><path class="cls-1" d="M47,34.92a6.55,6.55,0,0,1-1.64-4.67V3.41a4.06,4.06,0,0,1,1-2.9.26.26,0,0,1,.17-.09h2.82a.27.27,0,0,1,.25.21.22.22,0,0,1-.12.26c-1.39.58-1.52,1-1.82,2.35V28.6l0,1.69a8,8,0,0,0,.54,2.19,7.33,7.33,0,0,0,5.23,4.76c.93.34-3,1.09-6.53-2.32Zm.25-7.33V3.2c.25-1.26.46-1.81,1.18-2.31H46.73a3.83,3.83,0,0,0-.84,2.48l1.39,24.22Z"/><path class="cls-1" d="M70.58,35.93v2.24c.21,0,1.09.21,2.1.37a7.86,7.86,0,0,1,2.4.59h-6.4c0-11.87,0-23.8,0-35.68a4,4,0,0,1,1-2.73h2.82c-1.43.63-1.64,1.05-1.93,2.57,0,19.71,0,14.23,0,32.64Z"/><path class="cls-1" d="M75,39.3h-6.4a.26.26,0,0,1-.25-.25c0-10.28,0-21.27,0-35.68a4.06,4.06,0,0,1,1-2.91.33.33,0,0,1,.17-.08h2.82a.26.26,0,0,1,.25.21.19.19,0,0,1-.12.25c-1.39.59-1.52,1-1.81,2.36V37.87c.37.09,1.09.21,1.89.34a7.38,7.38,0,0,1,2.49.63.3.3,0,0,1,.12.25c0,.17-.08.21-.21.21Zm-6.11-.46h4.39a3.62,3.62,0,0,0-.68-.08c-1-.17-1.94-.34-2.1-.38a.24.24,0,0,1-.17-.26V3.2c.25-1.26.46-1.81,1.18-2.31H69.82A3.78,3.78,0,0,0,69,3.37c-.09,14.32-.09,25.28,0,35.47Z"/><path class="cls-1" d="M82.67.67a3.32,3.32,0,0,0-.42,1.69c0,.67,0,1.3,0,1.73v33.4a1.53,1.53,0,0,1-.59,1.27c-.25.25-.5.25-1,.25H77.82a4.31,4.31,0,0,0,1.69-.89,1.82,1.82,0,0,0,.59-1.47L80,3.5c0-1.94-.46-2.19-3.62-2.45l0-.46,6.32.08ZM92.78,20.89a40.62,40.62,0,0,1,4.42,6.74c1.77,3.21,3.24,5.61,4.38,7.25a15,15,0,0,0,3.54,3.88A6.9,6.9,0,0,1,100.4,36a50.54,50.54,0,0,1-4.59-7.59,28.93,28.93,0,0,0-4.51-6.74c-2.23-.42-3.87-1.43-6.15-2.78v19.3c.21,0,1.1.21,2.11.37a7.86,7.86,0,0,1,2.4.59h-6.4c-.05-11.87-.05-23.8,0-35.68a4,4,0,0,1,1-2.73h8.59c3,0,5.43.08,7.5.88a9.64,9.64,0,0,1,5,4.55c2.82,5.39.25,13.31-5.6,14.62,3.58-2.28,4.84-5.73,4.84-9.52a11.08,11.08,0,0,0-.67-3.92,8.84,8.84,0,0,0-3-3.92,8.21,8.21,0,0,0-5.31-1.6c-3.41-.08-6.49,0-9.78,0a1.66,1.66,0,0,0-.71,1.52V17.86a14.67,14.67,0,0,0,7.58,3.08l.13-.05Zm19,17.36a2.55,2.55,0,0,1-.89.84,4.17,4.17,0,0,1-1.09.21c-.51.05-.84.09-1,.09A5,5,0,0,1,105.16,38c-4.88-4.72-6.86-11.88-11.5-17H94a3.21,3.21,0,0,0,.67-.05c7.25-.54,8.13-8.84,6.07-14.4A8.58,8.58,0,0,0,98.46,3a5.94,5.94,0,0,1,3.37,2.32c2.57,3.24,2.36,8.38.43,11.8a9.31,9.31,0,0,1-3.63,3.58,9,9,0,0,1-1.68.71,3,3,0,0,1-.63.17,35.19,35.19,0,0,1,3.11,4.68c1.1,1.93,2.28,4,3.46,6a40.56,40.56,0,0,0,3,4.51,6.21,6.21,0,0,0,1.94,1.72,4.84,4.84,0,0,0,1.6.26,7.77,7.77,0,0,0,2.4-.51Z"/><path class="cls-1" d="M108.83,39.64A5.2,5.2,0,0,1,105,38.12c-2.61-2.52-4.43-5.77-6.2-8.93a41.48,41.48,0,0,0-5.35-8.08.22.22,0,0,1,0-.26.24.24,0,0,1,.21-.12H94a2.68,2.68,0,0,0,.63-.05,6.62,6.62,0,0,0,5.35-3c2-3.12,1.73-7.79.55-11a8.79,8.79,0,0,0-2.19-3.37.25.25,0,0,1,0-.29.3.3,0,0,1,.26-.13A6.28,6.28,0,0,1,102,5.22c2.78,3.46,2.28,8.81.43,12.05a9.23,9.23,0,0,1-3.71,3.67,7.44,7.44,0,0,1-1.73.71c-.08,0-.21,0-.29.09a35.6,35.6,0,0,1,2.9,4.42c1.1,1.94,2.28,4,3.46,6a35.81,35.81,0,0,0,3,4.47,6.28,6.28,0,0,0,1.85,1.64,5.79,5.79,0,0,0,3.75-.17.27.27,0,0,1,.29.09.19.19,0,0,1,0,.29,2.78,2.78,0,0,1-1,.93,4.74,4.74,0,0,1-1.14.21c-.42,0-.8,0-1,0ZM94.21,21.15a46.51,46.51,0,0,1,5.05,7.79c1.73,3.12,3.54,6.36,6.11,8.85a4.78,4.78,0,0,0,3.46,1.39c.21,0,.63,0,1-.09a3.18,3.18,0,0,0,1-.21.38.38,0,0,0,.21-.12,6,6,0,0,1-3.24-.09,6.88,6.88,0,0,1-2.07-1.81,32.23,32.23,0,0,1-3-4.51c-1.18-2-2.32-4-3.45-6a34,34,0,0,0-3.12-4.68c0-.08-.08-.16,0-.21a.3.3,0,0,1,.17-.16c.21-.05.42-.13.63-.17a11.46,11.46,0,0,0,1.64-.68A8.81,8.81,0,0,0,102.13,17c1.77-3.12,2.23-8.22-.38-11.5a6.36,6.36,0,0,0-2.32-1.9,9,9,0,0,1,1.65,2.82c1.22,3.37,1.51,8.22-.59,11.46a7.17,7.17,0,0,1-5.73,3.25c-.21,0-.38,0-.55,0ZM89.66,39.3h-6.4a.27.27,0,0,1-.26-.25c0-10.32,0-21.65,0-35.68A4.11,4.11,0,0,1,84.06.46a.3.3,0,0,1,.17-.08h8.59a22.48,22.48,0,0,1,7.58.88,9.73,9.73,0,0,1,5.1,4.68,11.39,11.39,0,0,1,.12,9.94,8.49,8.49,0,0,1-5.85,5.06c-.13,0-.21-.05-.29-.13a.23.23,0,0,1,.08-.29c3.12-2,4.72-5.14,4.76-9.31a11,11,0,0,0-.67-3.84,8.85,8.85,0,0,0-2.91-3.79A7.9,7.9,0,0,0,95.6,2c-2.07,0-4,0-6,0H85.91a1.38,1.38,0,0,0-.55,1.31V17.74a14,14,0,0,0,7.33,2.94h.09c.08,0,.12.05.17.09a38.39,38.39,0,0,1,4.46,6.78c1.81,3.24,3.25,5.6,4.34,7.25l.29.38a14.11,14.11,0,0,0,3.21,3.41.28.28,0,0,1,.08.29c0,.09-.17.17-.25.13a7.14,7.14,0,0,1-4.85-2.87,48.89,48.89,0,0,1-4.63-7.62,29.15,29.15,0,0,0-4.38-6.61,18,18,0,0,1-5.77-2.57h0V38c.37.08,1.09.21,1.89.33a7.34,7.34,0,0,1,2.49.64.29.29,0,0,1,.12.25.35.35,0,0,1-.25.08Zm-6.15-.46h4.38a3.42,3.42,0,0,0-.67-.08c-1.06-.17-1.94-.34-2.11-.38a.24.24,0,0,1-.17-.26V18.83a.23.23,0,0,1,.13-.21.28.28,0,0,1,.25,0l.38.21a18.18,18.18,0,0,0,5.69,2.53s.08,0,.12.08a30.06,30.06,0,0,1,4.55,6.78,49.63,49.63,0,0,0,4.6,7.54,6.2,6.2,0,0,0,3.58,2.49,12.55,12.55,0,0,1-2.49-2.86l-.29-.38c-1.14-1.65-2.57-4-4.39-7.29a39,39,0,0,0-4.34-6.61A15.21,15.21,0,0,1,85.07,18c-.09,0-.09-.13-.09-.21V3.2a2,2,0,0,1,.8-1.73.18.18,0,0,1,.13,0H89.7c1.94,0,3.92,0,6,0a8.57,8.57,0,0,1,5.44,1.69,9.21,9.21,0,0,1,3.07,4,10.72,10.72,0,0,1,.72,4A11,11,0,0,1,101.2,20a8.48,8.48,0,0,0,4.09-4.3,10.81,10.81,0,0,0-.09-9.47,9.24,9.24,0,0,0-4.84-4.43A21.66,21.66,0,0,0,93,1H84.44a3.86,3.86,0,0,0-.85,2.48c-.08,13.86-.12,25.15-.08,35.39Zm-2.91.46H77.78a.26.26,0,0,1-.25-.21c0-.12,0-.21.17-.25l.21-.08A4.92,4.92,0,0,0,79.34,38a1.51,1.51,0,0,0,.51-1.31L79.76,3.54c0-1.69-.21-1.94-3.41-2.19a.22.22,0,0,1-.21-.21l0-.47c0-.08,0-.12.08-.16a.29.29,0,0,1,.17-.09h6.36a.23.23,0,0,1,.21.13.2.2,0,0,1,0,.21,4.33,4.33,0,0,0-.42,1.6c0,.84,0,1.47,0,1.73v33.4A1.92,1.92,0,0,1,81.78,39a1.65,1.65,0,0,1-1.18.33ZM79,38.84h1.6c.47,0,.63,0,.8-.21a1.37,1.37,0,0,0,.51-1.1V4.13c0-.25,0-.89,0-1.73A4.58,4.58,0,0,1,82.25,1H76.77c2.74.25,3.41.63,3.41,2.65l.09,33.16a2.06,2.06,0,0,1-.68,1.68c-.17.13-.38.25-.59.38Z"/><path class="cls-1" d="M66.07,39.3H63.25a.27.27,0,0,1-.26-.21c0-.12,0-.21.17-.25l.21-.08A5,5,0,0,0,64.81,38a1.54,1.54,0,0,0,.5-1.31L65.23,3.54c0-1.69-.21-1.94-3.42-2.19a.23.23,0,0,1-.21-.21l0-.47c0-.08,0-.12.09-.16a.26.26,0,0,1,.16-.09h6.37a.23.23,0,0,1,.21.13.28.28,0,0,1,0,.25A4.14,4.14,0,0,0,68,2.4c0,.84,0,1.48,0,1.73v33.4A1.9,1.9,0,0,1,67.25,39a1.86,1.86,0,0,1-1.18.29Zm-1.6-.46h1.64c.46,0,.63,0,.8-.21a1.37,1.37,0,0,0,.51-1.1V4.13c0-.25,0-.89,0-1.73A4.55,4.55,0,0,1,67.75,1H62.28c2.78.25,3.41.59,3.41,2.65l.09,33.16a2.09,2.09,0,0,1-.68,1.68l-.63.38Z"/><path class="cls-1" d="M68.13.67a4,4,0,0,0-.46,1.69c0,.67,0,1.3,0,1.73v33.4A1.68,1.68,0,0,1,67,38.76c-.25.25-.51.25-1,.25H63.21a4.86,4.86,0,0,0,1.68-.89,1.85,1.85,0,0,0,.59-1.51L65.4,3.45c0-1.93-.47-2.19-3.67-2.44l0-.46,6.44.12Z"/></g></g></svg>