<svg xmlns="http://www.w3.org/2000/svg" viewBox="0 0 195.55 195.55"><defs><style>.cls-1{fill:#5d9b38;}.cls-1,.cls-2,.cls-3{fill-rule:evenodd;}.cls-2{fill:#fff;}.cls-3{fill:#92c83e;}</style></defs><title>Asset 1</title><g id="Layer_2" data-name="Layer 2"><g id="Layer_1-2" data-name="Layer 1"><path class="cls-1" d="M193.65,98.32a96,96,0,1,1-96-96,96,96,0,0,1,96,96Z"/><path class="cls-2" d="M29.4,66.68c.89.93,0,1.73.85,1.9a1.81,1.81,0,0,0,2.14-1.68c.26-4.34-5.22-4.85-6.61-1.14-1.22,3.16,1.31,6.19,3.37,6.78,3.92,1.1,8.68.34,13.44-3.29,10.78-8.08,18.66-12.13,24.6-11a8.79,8.79,0,0,1,4.13,1.89c2.86-2.73,6.44-4.63,9.94-6.44.84-.42,1.64-.89,2.44-1.39a18,18,0,0,1-3.79-4.55c-7.66-13.57,5.56-24,11.33-15a1.67,1.67,0,0,0-.42.09A4.77,4.77,0,0,0,90,33a6.07,6.07,0,0,0-1.26-1.27c0-.12,0-.29-.08-.46a.61.61,0,0,0-.47-.42.51.51,0,0,0-.46.25c-2.82-1.31-6.11.38-7.84,3.62,0,0-.08-.12-.12-.17a.54.54,0,0,0-.51-.21.47.47,0,0,0-.38.59,1.4,1.4,0,0,1,0,.38.59.59,0,0,1,0,.26,7,7,0,0,0-.5,2.78,6.57,6.57,0,0,0,.33,2,14.81,14.81,0,0,0,2.32,7A19.22,19.22,0,0,0,84.8,51.6a22.86,22.86,0,0,0,3.66-3,7.79,7.79,0,0,0,.17,1.35,20.68,20.68,0,0,1-3,2.4h0A59,59,0,0,0,91,56.11a39.11,39.11,0,0,1,6.82,5.39,39.54,39.54,0,0,1,6.83-5.39,59,59,0,0,0,5.31-3.79h0c-3.71-2.49-6.62-5.94-7.46-10a.23.23,0,0,1,.13-.08.53.53,0,0,0,.25-.55.54.54,0,0,0-.55-.42,12.35,12.35,0,0,1,.55-5.31,5.72,5.72,0,0,1,.21-.59,4.28,4.28,0,0,0,1,.47c-.09.21-.13.38-.21.59-1.81,5.68.63,10.91,6.91,15.2a20.42,20.42,0,0,0,3.75-4.29,15.37,15.37,0,0,0,2.23-6.07s0-.13.08-.17a7,7,0,0,0,.68-2.69,8,8,0,0,0-.51-2.78.59.59,0,0,1,0-.26,1.26,1.26,0,0,1,0-.38v-.08c1.43,3.33,1.48,7.92-1.39,12.93a18.75,18.75,0,0,1-3.79,4.55,26.84,26.84,0,0,0,2.44,1.39c3.5,1.81,7.08,3.71,10,6.45a8.86,8.86,0,0,1,4.12-1.9c5.94-1.09,13.82,3,24.6,11,4.81,3.62,9.57,4.38,13.44,3.28,2.07-.59,4.59-3.58,3.37-6.78-1.39-3.66-6.86-3.2-6.61,1.14a1.8,1.8,0,0,0,2.15,1.68c.88-.16-.05-1,.84-1.89a1.24,1.24,0,0,1-.8,2.06A2,2,0,0,1,162.82,67c-.21-4.89,5.64-5.14,7.12-1.3a5.66,5.66,0,0,1-3.46,7.16c-4.89,1.47-9.48.12-13.82-3.2C142,61.5,133.79,57.75,128.4,58.85a8.46,8.46,0,0,0-3.83,1.73,11.18,11.18,0,0,1,2.14,2.9c3.33,6.7-6.44,7.88-5.18,1.52a8.32,8.32,0,0,1,2.11-4.3,41.41,41.41,0,0,0-9.65-6c-1.09-.55-2.06-1.1-3-1.64a42.78,42.78,0,0,1-5.9,4,30.52,30.52,0,0,0-6.78,5c1.39,1.9,2.78,3.67,3.29,6.07.71,3.45-1.6,5.18-3.84,5.09-2.23.09-4.54-1.64-3.83-5.09a11.05,11.05,0,0,1,1-2.83,1.78,1.78,0,0,1-.08.89c0,.08-.09.17-.13.17a.49.49,0,0,0-.33.63.58.58,0,0,0,.5.38H95a3.39,3.39,0,0,0-.17.59c-.63,2.82.59,4.55,2.9,4.55s3.5-1.77,2.87-4.55a13.61,13.61,0,0,0-2.87-5.27l-.16.17a.92.92,0,0,0-.38-.21,1.57,1.57,0,0,1-.34-.21c.08-.13.21-.25.29-.38a29.6,29.6,0,0,0-6.69-5,42.78,42.78,0,0,1-5.9-4c-.93.55-1.94,1.09-3,1.64a42.09,42.09,0,0,0-9.65,6A9,9,0,0,1,74.06,65c1.26,6.36-8.51,5.14-5.18-1.52A11.9,11.9,0,0,1,71,60.62a8.06,8.06,0,0,0-3.83-1.73c-5.43-1-13.61,2.66-24.26,10.83-4.34,3.33-8.94,4.67-13.82,3.2a5.64,5.64,0,0,1-3.45-7.16c1.47-3.83,7.33-3.58,7.11,1.3a2,2,0,0,1-2.44,1.82,1.38,1.38,0,0,1-.93-2.2Zm74-32.31c.13-.25.21-.46.34-.71l1.09.12H105c-.17.3-.38.68-.55,1a1.72,1.72,0,0,1-1-.43Zm.93-1.68c3.53-5.43,9.85-3.62,12.47,1.73a.75.75,0,0,0-.22-.13.45.45,0,0,0-.5.21,3.58,3.58,0,0,0-.3.46c-1.64-3.32-4.88-5.09-7.7-4a.5.5,0,0,0-.38-.17.46.46,0,0,0-.47.43h0c0,.08,0,.16,0,.25a6,6,0,0,0-1.52,1.43,2.43,2.43,0,0,0-.54-.08l-.8-.13ZM89.81,46.93a10.63,10.63,0,0,0,.8-1.18,2.29,2.29,0,0,0,.25,1.47,2.51,2.51,0,0,1-.42.55,3.85,3.85,0,0,0-.63-.84Zm1.73-3.08a11.05,11.05,0,0,0,.13-7.45c0-.17-.13-.34-.17-.51a2.52,2.52,0,0,0,1-.38c0,.13.08.25.12.42a12.16,12.16,0,0,1,.3,6.7,1.11,1.11,0,0,0-.25-.17.52.52,0,0,0-.59.38,4.51,4.51,0,0,1-.17.46,1.6,1.6,0,0,1-.38.55Zm.63,1.1c-.17.38-.38.76-.59,1.14v-.21a2.68,2.68,0,0,1,.55-1.14.32.32,0,0,1,0,.21Zm-2.36,3.66c-.12.13-.21.26-.33.38a5.44,5.44,0,0,1,0-.92c.13.21.26.37.38.54Zm2-14.87c.13.26.25.55.38.84a1.68,1.68,0,0,1-1,.34c-.17-.38-.34-.71-.51-1,.13,0,.25,0,.38-.08a5.44,5.44,0,0,0,.8-.09ZM124.06,61a10.36,10.36,0,0,1,2.07,2.74c2.48,5.18-4.68,6.4-3.88,1.26a7.32,7.32,0,0,1,1.81-4ZM96,65.13a2.31,2.31,0,0,1,.16-.3l0,0c0-.08-.08-.13-.12-.21v.55ZM71.45,61a10.36,10.36,0,0,0-2.07,2.74C66.9,69,74.06,70.18,73.26,65a7.32,7.32,0,0,0-1.81-4Z"/><path class="cls-2" d="M80.46,49.71A7.05,7.05,0,0,0,76,45a8.73,8.73,0,0,1-2.53-1.94,6.19,6.19,0,0,0-4.76-1.76,1.46,1.46,0,0,1-.88-.3,10.16,10.16,0,0,0,6,3.62,13.64,13.64,0,0,0-3,.38,5.28,5.28,0,0,1-2.7-1.13,2.59,2.59,0,0,0-3.16.21,3.53,3.53,0,0,1-1.47.67,8.89,8.89,0,0,0,1.85.25c1,0,1.89,1,3.58.63a15.42,15.42,0,0,0-2,1.06c-1.56.63-3.33-.42-4.26,1.05-.25.38-.54.55-.88.46a2.75,2.75,0,0,0,3.16.21,16.71,16.71,0,0,0-3.71,6.87,7.94,7.94,0,0,1,2.28-1.64,2.39,2.39,0,0,0,1.09-3.08c-.25-.67.13-1.35,1.14-2.31a6.39,6.39,0,0,1,.84-.72,2.81,2.81,0,0,0-.46,2.74,2.81,2.81,0,0,1-.09,2.61,7.6,7.6,0,0,1,1.35-1.18c2.32-1.85-.5-3.58,1-5.35a12.18,12.18,0,0,1,2.57-1c-1.43,1.22-1.77,2.36-1.17,3.41.71,1.39.54,2.45-.34,3.12,1.94-.34,2.78-2.86,2-4.51a1.63,1.63,0,0,1,.55-2.27,9.13,9.13,0,0,1,2.86,0c-.93.51-1.26,1.6-1,3.37.21,1.56,0,2.49-.72,2.74,1.39,0,2,.17,2.57-1.35a2.37,2.37,0,0,0-.17-2.57c-.76-1-.76-1.77-.16-2.1a8.4,8.4,0,0,1,5,4.42Z"/><path class="cls-2" d="M83.54,49.54a7.12,7.12,0,0,1-3-5.69,9.16,9.16,0,0,0-1-3,6,6,0,0,1-.12-5,2.4,2.4,0,0,0,0-.93,10.45,10.45,0,0,1,1.47,6.87A11.2,11.2,0,0,1,82.27,39a5.27,5.27,0,0,0-.21-2.91,2.55,2.55,0,0,1,1.22-2.91A3.52,3.52,0,0,0,84.38,32,14.42,14.42,0,0,1,84,33.87c-.25.93.3,2.06-.55,3.58a11.53,11.53,0,0,1,1.65-1.56c1.09-1.26.67-3.28,2.4-3.71.46-.12.71-.33.71-.71.34,1.56,0,2.36-.84,3a16.61,16.61,0,0,1,7.71-1.31,7.61,7.61,0,0,0-2.27,1.61,2.41,2.41,0,0,1-3.25.08c-.54-.46-1.3-.34-2.53.34-.33.17-.63.38-.92.54a2.7,2.7,0,0,1,2.74.47,2.91,2.91,0,0,0,2.52.76,7.79,7.79,0,0,0-1.56.88c-2.48,1.6-3.24-1.64-5.43-.76a12.3,12.3,0,0,0-1.77,2.11c1.64-.93,2.78-.93,3.62,0,1.1,1.13,2.15,1.3,3.08.67-.93,1.73-3.62,1.69-4.89.46a1.63,1.63,0,0,0-2.31-.21,9.26,9.26,0,0,0-.89,2.74c.76-.71,1.94-.67,3.54.09,1.43.67,2.36.75,2.82.16-.46,1.31-.5,1.9-2.1,2a2.28,2.28,0,0,1-2.36-1c-.72-1.06-1.43-1.31-1.9-.85a7.07,7.07,0,0,0,2.28,6.28Z"/><path class="cls-2" d="M77.68,34.75a5.12,5.12,0,0,0,2.11-4.17,6,6,0,0,1,.71-2.19,4.41,4.41,0,0,0,0-3.66,1.28,1.28,0,0,1,0-.68,7.52,7.52,0,0,0-1,5,8,8,0,0,0-1-2,3.53,3.53,0,0,1,.13-2.11,1.87,1.87,0,0,0-.93-2.11,2.48,2.48,0,0,1-.8-.84,7.73,7.73,0,0,0,.3,1.35c.21.67-.17,1.51.46,2.61a10.85,10.85,0,0,0-1.22-1.14c-.8-.93-.51-2.36-1.77-2.65-.34-.09-.51-.25-.51-.51a1.92,1.92,0,0,0,.63,2.19,12.12,12.12,0,0,0-5.6-.84,6.58,6.58,0,0,1,1.69,1.14,1.7,1.7,0,0,0,2.35,0c.38-.34,1-.26,1.86.21a7,7,0,0,1,.67.38,2,2,0,0,0-2,.38A2.07,2.07,0,0,1,72,25.7a5.45,5.45,0,0,1,1.14.63c1.81,1.14,2.32-1.22,3.92-.59a8.94,8.94,0,0,1,1.3,1.52c-1.18-.68-2-.64-2.61,0a1.67,1.67,0,0,1-2.23.54c.71,1.27,2.65,1.18,3.54.3a1.17,1.17,0,0,1,1.68-.17,6.62,6.62,0,0,1,.67,2c-.54-.51-1.43-.46-2.56.08s-1.73.59-2.07.17c.38,1,.38,1.39,1.56,1.43A1.76,1.76,0,0,0,78,30.84c.5-.8,1-1,1.39-.64a6,6,0,0,1-1.73,4.55Z"/><path class="cls-2" d="M82.27,29.57a3.66,3.66,0,0,0,3.16-1.14,6,6,0,0,1,1.43-.8,3.23,3.23,0,0,0,1.86-1.93.88.88,0,0,1,.33-.38,5.56,5.56,0,0,0-3,2.1,7.76,7.76,0,0,0,.47-1.56,2.63,2.63,0,0,1,1.09-1.05,1.33,1.33,0,0,0,.55-1.56,1.33,1.33,0,0,1,0-.84,3.62,3.62,0,0,0-.51.84c-.21.47-.84.72-1,1.6a10.94,10.94,0,0,0-.08-1.18c0-.88.88-1.51.38-2.27a.46.46,0,0,1,0-.51,1.38,1.38,0,0,0-.75,1.48,8.58,8.58,0,0,0-2.53-3.2,3.25,3.25,0,0,1,.29,1.43,1.24,1.24,0,0,0,1.22,1.18c.38,0,.64.34.89,1a3.86,3.86,0,0,1,.17.55,1.45,1.45,0,0,0-1.22-.8A1.51,1.51,0,0,1,83.7,22a3.73,3.73,0,0,1,.3.88c.38,1.52,1.85.51,2.36,1.6a5.17,5.17,0,0,1-.09,1.43c-.29-.92-.76-1.34-1.39-1.3-.8,0-1.3-.25-1.43-.8a1.68,1.68,0,0,0,1.73,1.89.88.88,0,0,1,1,.72,3.59,3.59,0,0,1-.64,1.35c0-.55-.5-.93-1.39-1.22S83,26,83,25.57c-.3.67-.47.93.12,1.52a1.29,1.29,0,0,0,1.27.46c.63-.17,1,0,1.05.34a3.79,3.79,0,0,1-3.16,1.68Z"/><path class="cls-2" d="M99.5,66A4.17,4.17,0,0,0,97,63a5.44,5.44,0,0,1-1.43-1.26,3.83,3.83,0,0,0-2.82-1.23.86.86,0,0,1-.51-.21,6.5,6.5,0,0,0,3.5,2.41,7.09,7.09,0,0,0-1.85.12,3.33,3.33,0,0,1-1.6-.8,1.53,1.53,0,0,0-1.9,0,1.8,1.8,0,0,1-.93.34,5.82,5.82,0,0,0,1.1.21c.59.09,1.09.63,2.15.51a5.1,5.1,0,0,0-1.27.59c-1,.33-2-.38-2.61.5a.52.52,0,0,1-.55.25,1.58,1.58,0,0,0,1.9.22,9.94,9.94,0,0,0-2.49,4,4.47,4.47,0,0,1,1.44-.93A1.42,1.42,0,0,0,89.85,66c-.12-.42.13-.8.76-1.35.17-.12.34-.25.55-.38a1.72,1.72,0,0,0-.38,1.65,1.65,1.65,0,0,1-.17,1.6,4.93,4.93,0,0,1,.85-.68c1.47-1-.17-2.19.8-3.2a9.31,9.31,0,0,1,1.6-.5c-.89.71-1.14,1.34-.85,2,.38.84.26,1.51-.33,1.89a2,2,0,0,0,1.39-2.65,1,1,0,0,1,.42-1.35,5.85,5.85,0,0,1,1.73.13c-.59.25-.85.93-.76,2s-.13,1.51-.55,1.64c.84,0,1.18.17,1.6-.71a1.37,1.37,0,0,0,0-1.56c-.42-.64-.42-1.1,0-1.27A4.42,4.42,0,0,1,99.5,66Z"/><path class="cls-2" d="M88.25,29.53a3,3,0,0,0,2.53.88,5.49,5.49,0,0,1,1.31.22,2.64,2.64,0,0,0,2.1-.26,1.07,1.07,0,0,1,.38-.08,4.29,4.29,0,0,0-2.9-.17,5.33,5.33,0,0,0,1-.72,2.5,2.5,0,0,1,1.22-.08,1.13,1.13,0,0,0,1.14-.67,1.29,1.29,0,0,1,.42-.55,3.46,3.46,0,0,0-.72.25c-.38.17-.88,0-1.43.46a5.14,5.14,0,0,0,.55-.8c.46-.54,1.3-.46,1.39-1.22a.3.3,0,0,1,.25-.34c-.67,0-1,.13-1.18.55a6.33,6.33,0,0,0,0-3.24,3.78,3.78,0,0,1-.5,1,1,1,0,0,0,.17,1.35c.21.21.21.51,0,1.05,0,.13-.13.3-.17.42a1.07,1.07,0,0,0-.38-1.09,1.11,1.11,0,0,1-.46-1,5.73,5.73,0,0,1-.25.72c-.51,1.13.88,1.22.63,2.19a3.81,3.81,0,0,1-.76.84c.29-.72.21-1.22-.21-1.48s-.68-.8-.46-1.22a1.34,1.34,0,0,0,.12,2c.38.3.42.68.21.93a3.64,3.64,0,0,1-1,.55c.25-.34.17-.84-.25-1.43s-.47-.93-.26-1.14c-.5.29-.76.34-.67,1a1,1,0,0,0,.55.93c.46.21.63.5.46.71a3.8,3.8,0,0,1-2.91-.67Z"/><path class="cls-2" d="M102.15,69a2.93,2.93,0,0,1,.21-2.65,3.24,3.24,0,0,0,.3-1.26,2.51,2.51,0,0,1,1.1-1.82A.7.7,0,0,0,104,63a4.41,4.41,0,0,1-1,2.74,5,5,0,0,1,1.09-.68,2.55,2.55,0,0,0,.59-1.05,1.09,1.09,0,0,1,1.1-.76,1.55,1.55,0,0,0,.63-.17,6.42,6.42,0,0,1-.55.59c-.29.25-.38.8-1,1.14a3.72,3.72,0,0,1,.93-.17c.67-.21,1-1,1.64-.76.17,0,.34,0,.42-.08-.21.63-.5.84-1,.88a6.83,6.83,0,0,1,3,1.27,3,3,0,0,0-1.18.08,1,1,0,0,1-1.14-.72c-.08-.29-.37-.42-1-.46h-.47a1.18,1.18,0,0,1,.84.76,1.22,1.22,0,0,0,.72.84,3,3,0,0,0-.76,0c-1.22,0-.75-1.31-1.72-1.47a5.08,5.08,0,0,0-1.1.37c.8,0,1.18.3,1.27.81s.46.92.92.92a1.36,1.36,0,0,1-1.81-.92.69.69,0,0,0-.76-.59,4.5,4.5,0,0,0-.93.75c.43-.08.85.17,1.23.8s.67.8,1,.68c-.47.33-.59.55-1.18.25a1.12,1.12,0,0,1-.64-.88c0-.55-.21-.76-.5-.72a3.18,3.18,0,0,0-.47,2.65Z"/><path class="cls-2" d="M77.18,42.08a6.56,6.56,0,0,0-1.44-5.73,8.51,8.51,0,0,1-1.13-2.65,5.57,5.57,0,0,0-3-3.54,1.45,1.45,0,0,1-.59-.63,9.48,9.48,0,0,0,3.16,5.56A9.8,9.8,0,0,0,71.57,34a5.51,5.51,0,0,1-1.64-2.11,2.31,2.31,0,0,0-2.61-1.22,3.81,3.81,0,0,1-1.48-.13,8.35,8.35,0,0,0,1.35,1.06c.76.46,1,1.6,2.57,2.1a12.4,12.4,0,0,0-2.11,0c-1.51-.21-2.44-1.81-3.87-1.05a.75.75,0,0,1-.93,0c.72,1.26,1.43,1.6,2.4,1.55a14.89,14.89,0,0,0-6,3.84,7.13,7.13,0,0,1,2.53-.3A2.22,2.22,0,0,0,64,35.76c.09-.63.72-1,1.94-1.34a6.57,6.57,0,0,1,1-.17,2.55,2.55,0,0,0-1.6,2,2.58,2.58,0,0,1-1.27,2.06A6.46,6.46,0,0,1,65.68,38c2.65-.43,1.22-3.12,3.24-3.8a12.81,12.81,0,0,1,2.48.38c-1.68.34-2.44,1.1-2.48,2.19,0,1.44-.68,2.19-1.69,2.32,1.69.59,3.5-1,3.63-2.65.08-1.06.71-1.56,1.43-1.56a8.89,8.89,0,0,1,2.27,1.3c-.92,0-1.72.72-2.36,2.19s-1.13,2-1.81,1.86c1.14.59,1.48,1,2.66.08a2.19,2.19,0,0,0,1-2.15c-.17-1.18.17-1.72.8-1.72a6.63,6.63,0,0,1,2.32,5.68Z"/><path class="cls-2" d="M92.3,58.64a6.42,6.42,0,0,0-5.65-1.73,9.27,9.27,0,0,1-2.86-.38,5.62,5.62,0,0,0-4.59.76,1.65,1.65,0,0,1-.85.17,9.58,9.58,0,0,0,6.41.17,11,11,0,0,0-2.23,1.68,5.21,5.21,0,0,1-2.66.3,2.31,2.31,0,0,0-2.4,1.6,3,3,0,0,1-.89,1.18,13.59,13.59,0,0,0,1.61-.63c.8-.38,1.93-.09,3.11-1.14a12.38,12.38,0,0,0-1.13,1.77c-1,1.22-2.83,1.14-2.91,2.78a.77.77,0,0,1-.51.76c1.44,0,2.11-.38,2.57-1.27a15.25,15.25,0,0,0,.17,7.12,7.21,7.21,0,0,1,1.05-2.32,2.18,2.18,0,0,0-.5-2.94c-.51-.42-.51-1.14-.13-2.36a6.38,6.38,0,0,1,.34-.93,2.57,2.57,0,0,0,.88,2.4,2.46,2.46,0,0,1,1.1,2.15,6.11,6.11,0,0,1,.55-1.56c1-2.48-2-2.61-1.6-4.72a11.89,11.89,0,0,1,1.6-1.93c-.55,1.6-.34,2.65.59,3.24,1.18.76,1.51,1.73,1.14,2.65,1.38-1.13.88-3.53-.43-4.46a1.56,1.56,0,0,1-.59-2.07,8.83,8.83,0,0,1,2.28-1.26c-.51.8-.3,1.85.67,3.16s1.1,2,.63,2.48c1.1-.67,1.65-.75,1.44-2.23a2.21,2.21,0,0,0-1.31-2c-1.1-.46-1.39-1.05-1.1-1.56a7.46,7.46,0,0,1,6.2,1.1Z"/><path class="cls-2" d="M95.63,58.81a6.4,6.4,0,0,1-3.88-4.43,8.7,8.7,0,0,0-1.56-2.44A5.62,5.62,0,0,1,89,47.48a1.6,1.6,0,0,0-.17-.85,9.36,9.36,0,0,1,2.78,5.77,8.63,8.63,0,0,1,.63-2.73,5,5,0,0,0-.8-2.57,2.39,2.39,0,0,1,.47-2.87,3,3,0,0,0,.71-1.3,9.29,9.29,0,0,1,.09,1.72c-.05.89.71,1.77.25,3.29a13.38,13.38,0,0,1,1.14-1.77c.71-1.35-.13-3,1.3-3.79.38-.21.55-.47.47-.76a2.41,2.41,0,0,1-.09,2.86,15.08,15.08,0,0,1,6.57-2.78,7.27,7.27,0,0,0-1.68,1.94,2.17,2.17,0,0,1-2.87.76c-.59-.29-1.26,0-2.19.84a6,6,0,0,0-.71.72,2.46,2.46,0,0,1,2.52-.17,2.59,2.59,0,0,0,2.41.13,7.76,7.76,0,0,0-1.18,1.13c-1.86,2-3.25-.75-5,.51a9.15,9.15,0,0,0-1.1,2.27c1.26-1.18,2.28-1.39,3.2-.8,1.18.76,2.19.68,2.87,0-.47,1.73-2.87,2.28-4.26,1.48a1.5,1.5,0,0,0-2.1.29A7.73,7.73,0,0,0,92,53.37c.51-.8,1.56-1,3.16-.67,1.44.29,2.28.17,2.53-.42-.12,1.26,0,1.81-1.43,2.23A2.1,2.1,0,0,1,94,54.13c-.84-.8-1.51-.84-1.89-.34a7.32,7.32,0,0,0,3.54,5Z"/><path class="cls-2" d="M112.35,49.5a7.89,7.89,0,0,0,3-5.69,9.16,9.16,0,0,1,1-3,6.16,6.16,0,0,0,.13-5.1,1.6,1.6,0,0,1,0-.92A10.41,10.41,0,0,0,115,41.66a11,11,0,0,0-1.34-2.74,5.16,5.16,0,0,1,.21-2.9,2.57,2.57,0,0,0-1.22-2.91,3.45,3.45,0,0,1-1.1-1.18,15.41,15.41,0,0,0,.34,1.85c.25.93-.3,2.07.59,3.59a11.53,11.53,0,0,0-1.65-1.56c-1.09-1.27-.67-3.29-2.4-3.71-.46-.13-.71-.34-.71-.72-.34,1.56,0,2.36.84,3a16.35,16.35,0,0,0-7.71-1.31,7.55,7.55,0,0,1,2.27,1.6,2.41,2.41,0,0,0,3.25.09c.54-.47,1.3-.34,2.52.33.34.17.64.38.93.55a2.69,2.69,0,0,0-2.74.46,2.88,2.88,0,0,1-2.52.76,7.26,7.26,0,0,1,1.56.89c2.48,1.6,3.24-1.65,5.43-.76a12.63,12.63,0,0,1,1.77,2.1c-1.65-.92-2.78-.92-3.62,0-1.1,1.14-2.15,1.31-3.08.68.93,1.72,3.62,1.68,4.89.46a1.63,1.63,0,0,1,2.31-.21,8.89,8.89,0,0,1,.89,2.74c-.76-.72-1.94-.68-3.54.08-1.43.68-2.36.76-2.82.17.46,1.31.46,1.9,2.1,2a2.25,2.25,0,0,0,2.36-1c.72-1.05,1.44-1.3,1.9-.84a7.67,7.67,0,0,1-2.36,6.32Z"/><path class="cls-2" d="M115.05,49.71A7,7,0,0,1,119.47,45,8.87,8.87,0,0,0,122,43.09a6.19,6.19,0,0,1,4.76-1.76,1.48,1.48,0,0,0,.88-.3,10.22,10.22,0,0,1-6,3.62,13.78,13.78,0,0,1,3,.38,5.28,5.28,0,0,0,2.7-1.13c.84-.64,1.93-.6,3.16.21a3.48,3.48,0,0,0,1.47.67,9,9,0,0,1-1.85.25c-1,0-1.9,1-3.58.63a16.08,16.08,0,0,1,2,1.06c1.56.63,3.33-.42,4.25,1.05.26.38.55.55.89.46a2.75,2.75,0,0,1-3.16.21,16.83,16.83,0,0,1,3.71,6.87A8.08,8.08,0,0,0,132,53.67a2.39,2.39,0,0,1-1.1-3.08c.26-.67-.12-1.35-1.13-2.31a6.39,6.39,0,0,0-.84-.72,2.81,2.81,0,0,1,.46,2.74,2.84,2.84,0,0,0,.08,2.61,7.22,7.22,0,0,0-1.35-1.18c-2.31-1.85.51-3.58-1-5.35a11.79,11.79,0,0,0-2.57-1c1.43,1.22,1.77,2.36,1.18,3.41-.71,1.39-.55,2.45.34,3.12-1.94-.34-2.74-2.86-2-4.51a1.64,1.64,0,0,0-.55-2.27,9.19,9.19,0,0,0-2.87,0c.93.51,1.27,1.6,1.06,3.37-.21,1.56,0,2.49.71,2.74-1.39,0-2,.17-2.57-1.35a2.41,2.41,0,0,1,.17-2.57c.76-1,.76-1.77.17-2.1a8.61,8.61,0,0,0-5,4.42Z"/><path class="cls-2" d="M117.87,34.75a5.12,5.12,0,0,1-2.11-4.17,6,6,0,0,0-.71-2.19,4.45,4.45,0,0,1,0-3.66,1.19,1.19,0,0,0,0-.68,7.64,7.64,0,0,1,1,5,7.68,7.68,0,0,1,1-2,3.61,3.61,0,0,0-.13-2.11,1.87,1.87,0,0,1,.93-2.11,2.48,2.48,0,0,0,.8-.84,7.73,7.73,0,0,1-.3,1.35c-.21.67.17,1.51-.46,2.61a10.85,10.85,0,0,1,1.22-1.14c.8-.93.51-2.36,1.77-2.65.34-.09.51-.25.51-.51a1.91,1.91,0,0,1-.64,2.19,12.16,12.16,0,0,1,5.61-.84,6.58,6.58,0,0,0-1.69,1.14,1.71,1.71,0,0,1-2.36,0c-.38-.34-1-.26-1.85.21a7,7,0,0,0-.67.38,2,2,0,0,1,2,.38,2.07,2.07,0,0,0,1.81.59,5.45,5.45,0,0,0-1.14.63c-1.81,1.14-2.32-1.22-3.92-.59a8.94,8.94,0,0,0-1.3,1.52c1.18-.68,2-.64,2.61,0a1.67,1.67,0,0,0,2.23.54c-.71,1.27-2.65,1.18-3.54.3a1.17,1.17,0,0,0-1.68-.17,6.94,6.94,0,0,0-.68,2c.55-.51,1.44-.46,2.57.08s1.73.59,2.07.17c-.38,1-.38,1.39-1.56,1.43a1.76,1.76,0,0,1-1.73-.75c-.5-.8-1-1-1.39-.64a5.69,5.69,0,0,0,1.73,4.55Z"/><path class="cls-2" d="M113.28,29.57a3.66,3.66,0,0,1-3.16-1.14,6.1,6.1,0,0,0-1.44-.8,3.24,3.24,0,0,1-1.85-1.93.85.85,0,0,0-.34-.38,5.53,5.53,0,0,1,3,2.1,7.77,7.77,0,0,1-.46-1.56,2.63,2.63,0,0,0-1.09-1.05,1.33,1.33,0,0,1-.55-1.56,1.48,1.48,0,0,0,0-.84,3.31,3.31,0,0,1,.5.84c.22.47.85.72,1.06,1.6a10.94,10.94,0,0,1,.08-1.18c0-.88-.88-1.51-.38-2.27a.44.44,0,0,0,0-.51,1.37,1.37,0,0,1,.76,1.48,8.58,8.58,0,0,1,2.53-3.2,3.25,3.25,0,0,0-.29,1.43,1.24,1.24,0,0,1-1.23,1.18c-.37,0-.63.34-.88,1a2.9,2.9,0,0,0-.17.55,1.45,1.45,0,0,1,1.22-.8,1.48,1.48,0,0,0,1.22-.59,4.5,4.5,0,0,0-.29.88c-.38,1.52-1.85.51-2.36,1.6a5.6,5.6,0,0,0,.08,1.43c.3-.92.76-1.34,1.4-1.3.8,0,1.3-.25,1.43-.8a1.68,1.68,0,0,1-1.73,1.89.88.88,0,0,0-1,.72,3.73,3.73,0,0,0,.63,1.35c0-.55.51-.93,1.39-1.22s1.18-.55,1.14-.93c.3.67.46.93-.13,1.52a1.27,1.27,0,0,1-1.26.46c-.63-.17-1,0-1,.34a3.73,3.73,0,0,0,3.16,1.68Z"/><path class="cls-2" d="M107.29,29.53a3,3,0,0,1-2.52.88,5.49,5.49,0,0,0-1.31.22,2.66,2.66,0,0,1-2.11-.26,1,1,0,0,0-.37-.08,4.3,4.3,0,0,1,2.9-.17,5.33,5.33,0,0,1-1-.72,2.5,2.5,0,0,0-1.22-.08,1.13,1.13,0,0,1-1.14-.67,1.38,1.38,0,0,0-.42-.55,3.46,3.46,0,0,1,.72.25c.37.17.88,0,1.43.46a5.14,5.14,0,0,1-.55-.8c-.46-.54-1.31-.46-1.39-1.22a.31.31,0,0,0-.25-.34c.67,0,1,.13,1.18.55a6.44,6.44,0,0,1,0-3.24,4.15,4.15,0,0,0,.51,1,1,1,0,0,1-.17,1.35c-.21.21-.21.51,0,1.05,0,.13.13.3.17.42a1.07,1.07,0,0,1,.38-1.09,1.11,1.11,0,0,0,.46-1,5.73,5.73,0,0,0,.25.72c.51,1.13-.88,1.22-.63,2.19a3.81,3.81,0,0,0,.76.84c-.29-.72-.21-1.22.21-1.48s.67-.8.46-1.22a1.35,1.35,0,0,1-.12,2,.69.69,0,0,0-.26.93,3.83,3.83,0,0,0,1.06.55c-.26-.34-.17-.84.25-1.43s.46-.93.25-1.14c.51.29.76.34.68,1a1,1,0,0,1-.55.93c-.46.21-.63.5-.46.71a3.86,3.86,0,0,0,2.94-.67Z"/><path class="cls-2" d="M118.33,42.08a6.55,6.55,0,0,1,1.43-5.73,8.28,8.28,0,0,0,1.14-2.65,5.56,5.56,0,0,1,3-3.54,1.4,1.4,0,0,0,.59-.63,9.43,9.43,0,0,1-3.16,5.56A9.94,9.94,0,0,1,123.93,34a5.44,5.44,0,0,0,1.65-2.11,2.31,2.31,0,0,1,2.61-1.22,3.78,3.78,0,0,0,1.47-.13,7.79,7.79,0,0,1-1.34,1.06c-.76.46-1.06,1.6-2.57,2.1a11.89,11.89,0,0,1,2.06,0c1.52-.21,2.44-1.81,3.88-1.05a.74.74,0,0,0,.92,0,2.39,2.39,0,0,1-2.4,1.55,15.26,15.26,0,0,1,6,3.84,7.16,7.16,0,0,0-2.53-.3,2.22,2.22,0,0,1-2.28-1.94c-.08-.63-.71-1-1.93-1.34a6.81,6.81,0,0,0-1-.17,2.57,2.57,0,0,1,1.6,2,2.54,2.54,0,0,0,1.26,2.06,6.46,6.46,0,0,0-1.6-.33c-2.65-.43-1.22-3.12-3.24-3.8a12.79,12.79,0,0,0-2.49.38c1.69.34,2.44,1.1,2.49,2.19,0,1.44.67,2.19,1.68,2.32-1.68.59-3.5-1-3.62-2.65-.09-1.06-.72-1.56-1.43-1.56a9,9,0,0,0-2.28,1.3c.93,0,1.73.72,2.36,2.19s1.14,2,1.81,1.86c-1.14.59-1.47,1-2.65.08a2.18,2.18,0,0,1-1-2.15c.17-1.18-.17-1.72-.8-1.72a6.8,6.8,0,0,0-2.28,5.68Z"/><path class="cls-2" d="M103.25,58.64a6.4,6.4,0,0,1,5.64-1.73,9.3,9.3,0,0,0,2.87-.38,5.62,5.62,0,0,1,4.59.76,1.64,1.64,0,0,0,.84.17,9.55,9.55,0,0,1-6.4.17A11,11,0,0,1,113,59.31a5.21,5.21,0,0,0,2.66.3,2.31,2.31,0,0,1,2.4,1.6,3.07,3.07,0,0,0,.88,1.18,13.55,13.55,0,0,1-1.6-.63c-.8-.38-1.94-.09-3.11-1.14a12.38,12.38,0,0,1,1.13,1.77c1,1.22,2.82,1.14,2.91,2.78a.77.77,0,0,0,.5.76,2.39,2.39,0,0,1-2.57-1.27,14.62,14.62,0,0,1-.16,7.12A7,7,0,0,0,115,69.46a2.18,2.18,0,0,1,.51-2.94c.5-.42.5-1.14.13-2.36a7.8,7.8,0,0,0-.34-.93,2.58,2.58,0,0,1-.89,2.4,2.57,2.57,0,0,0-1.09,2.15,6.11,6.11,0,0,0-.55-1.56c-1-2.48,2-2.61,1.6-4.72a11.89,11.89,0,0,0-1.6-1.93c.55,1.6.34,2.65-.59,3.24-1.18.76-1.51,1.73-1.14,2.65-1.39-1.13-.88-3.53.43-4.46a1.56,1.56,0,0,0,.59-2.07,8.83,8.83,0,0,0-2.28-1.26c.51.8.29,1.85-.67,3.16s-1.1,2-.64,2.48c-1.09-.67-1.64-.75-1.43-2.23a2.21,2.21,0,0,1,1.31-2c1.09-.46,1.39-1.05,1.09-1.56a7.4,7.4,0,0,0-6.19,1.1Z"/><path class="cls-2" d="M62.26,62.09a1.42,1.42,0,0,0-2.27.09c-1.86,2-1.77,3.7-.09,4.84a1.86,1.86,0,0,1,2.07.17,3.49,3.49,0,0,0,.29-5.1Z"/><path class="cls-2" d="M62.94,62c1.39,2.15,1,4.17-.43,5.43,2.79-.21,3.12-3.45.43-5.43Z"/><path class="cls-2" d="M63.57,61.84c-.38-.34-.8-.29-1.18-.42-.55-.21-1-.51-1.56-.34a2.25,2.25,0,0,1,1.56-1.18,2.54,2.54,0,0,1,3-.71c-1.18-.09-1.94.21-2.27.92a1.87,1.87,0,0,1,.42,1.73Z"/><path class="cls-2" d="M61.21,67.49c0,.12,0,.25,0,.37,0,.38.08,1-.38,1.06a.2.2,0,1,0,0,.38c.34,0,.34-1.44.34-1.73l0-.08Z"/><path class="cls-2" d="M60.49,67.36c0,.63-.12.88-.33.84-.85-.13-.43,1,.21.3a1.16,1.16,0,0,0,.12-1.14Z"/><path class="cls-2" d="M61.71,67.49c0,.63.13.88.34.84.84-.13.42,1-.21.29a1.23,1.23,0,0,1-.13-1.13Z"/><path class="cls-2" d="M61.17,67.49a9.07,9.07,0,0,0,.08,1.3c.13,1.22-1,.76-.63.34.17-.21.29-.13.38-.38s.08-.89.17-1.26Z"/><path class="cls-2" d="M133.24,62.09a1.43,1.43,0,0,1,2.28.09c1.85,2,1.77,3.7.08,4.84a1.84,1.84,0,0,0-2.06.17,3.52,3.52,0,0,1-.3-5.1Z"/><path class="cls-2" d="M132.61,62c-1.39,2.15-1,4.17.42,5.43-2.78-.21-3.16-3.45-.42-5.43Z"/><path class="cls-2" d="M131.94,61.84c.38-.34.8-.29,1.14-.42.54-.21,1-.51,1.55-.34a2.23,2.23,0,0,0-1.55-1.18,2.56,2.56,0,0,0-3-.71c1.18-.09,1.94.21,2.28.92a2.06,2.06,0,0,0-.38,1.73Z"/><path class="cls-2" d="M134.34,67.49c0,.12,0,.25,0,.37,0,.38-.08,1,.38,1.06a.2.2,0,1,1,0,.38c-.34,0-.34-1.44-.34-1.73l0-.08Z"/><path class="cls-2" d="M135,67.36c0,.63.13.88.34.84.84-.13.42,1-.21.3a1.45,1.45,0,0,1-.13-1.14Z"/><path class="cls-2" d="M133.79,67.49c0,.63-.12.88-.33.84-.85-.13-.43,1,.21.29.25-.21.25-.63.12-1.13Z"/><path class="cls-2" d="M134.38,67.49a9.07,9.07,0,0,1-.08,1.3c-.13,1.22,1,.76.63.34-.17-.21-.3-.13-.38-.38s-.08-.89-.17-1.26Z"/><path class="cls-2" d="M55.94,57a1.28,1.28,0,0,1-2,.51c-2.1-1.26-2.44-2.78-1.22-4.17a1.66,1.66,0,0,0,1.73-.63A3.11,3.11,0,0,1,55.94,57Z"/><path class="cls-2" d="M56.53,56.91a3.65,3.65,0,0,0-1.68-4.63c2.44-.46,3.54,2.27,1.68,4.63Z"/><path class="cls-2" d="M57.12,56.87c-.25.38-.63.46-.88.67a2.07,2.07,0,0,1-1.31.68,2.23,2.23,0,0,0,1.65.67,2.29,2.29,0,0,0,2.82-.12c-1,.37-1.73.29-2.19-.26a1.89,1.89,0,0,0-.09-1.64Z"/><path class="cls-2" d="M53.71,52.57c0-.12-.13-.21-.13-.33-.08-.3-.16-.89-.59-.85,0,0-.12,0-.12,0s0-.29.12-.33.64,1.18.68,1.39l0,.12Z"/><path class="cls-2" d="M53.12,52.83c-.17-.55-.34-.72-.5-.64-.68.3-.64-.8.12-.33a1.09,1.09,0,0,1,.38,1Z"/><path class="cls-2" d="M54.13,52.4c-.12-.54-.08-.8.09-.84.75-.08.12-1-.26-.21a1.25,1.25,0,0,0,.17,1Z"/><path class="cls-2" d="M53.67,52.57a6.11,6.11,0,0,1-.25-1.18c-.22-1.09-1.06-.42-.64-.12.21.12.3,0,.42.25a7.13,7.13,0,0,1,.47,1Z"/><path class="cls-2" d="M139.6,57a1.28,1.28,0,0,0,2,.51c2.11-1.26,2.45-2.78,1.23-4.17a1.65,1.65,0,0,1-1.73-.63A3.05,3.05,0,0,0,139.6,57Z"/><path class="cls-2" d="M139,56.91a3.64,3.64,0,0,1,1.68-4.63c-2.44-.46-3.58,2.27-1.68,4.63Z"/><path class="cls-2" d="M138.43,56.87c.25.38.63.46.88.67a2.07,2.07,0,0,0,1.31.68,2.26,2.26,0,0,1-1.65.67,2.29,2.29,0,0,1-2.82-.12c1,.37,1.73.29,2.19-.26a1.73,1.73,0,0,1,.09-1.64Z"/><path class="cls-2" d="M141.84,52.57c0-.12.12-.21.12-.33.09-.3.17-.89.59-.85,0,0,.13,0,.13,0s0-.29-.13-.33-.63,1.18-.71,1.39v.12Z"/><path class="cls-2" d="M142.43,52.83c.17-.55.33-.72.5-.64.68.3.63-.8-.12-.33a1.07,1.07,0,0,0-.38,1Z"/><path class="cls-2" d="M141.37,52.4c.13-.54.09-.8-.08-.84-.76-.08-.13-1,.25-.21a1,1,0,0,1-.17,1Z"/><path class="cls-2" d="M141.88,52.57a6.11,6.11,0,0,0,.25-1.18c.21-1.09,1.06-.42.63-.12-.21.12-.29,0-.42.25a8.32,8.32,0,0,0-.46,1Z"/><path class="cls-2" d="M52.83,66a1.16,1.16,0,0,0-1.61.89c-.58,2.1.13,3.28,1.73,3.45a1.5,1.5,0,0,1,1.52-.67A2.72,2.72,0,0,0,52.83,66Z"/><path class="cls-2" d="M53.2,65.67a3.25,3.25,0,0,1,1.73,4c1.9-1.22.93-3.67-1.73-4Z"/><path class="cls-2" d="M53.63,65.34c-.38-.13-.68.08-1,.12a2,2,0,0,0-1.22.34,1.74,1.74,0,0,1,.67-1.43A2.07,2.07,0,0,1,54,62.73c-.85.37-1.31.84-1.27,1.47a1.76,1.76,0,0,1,.89,1.14Z"/><path class="cls-2" d="M54.05,70.22c0,.09,0,.21.12.3.13.25.43.67.13.88l-.08.09a.19.19,0,0,0,.29.12c.25-.08-.29-1.13-.42-1.34l0,0Z"/><path class="cls-2" d="M53.5,70.39c.21.46.25.68.08.72-.63.21.09.88.26.12.08-.25-.09-.54-.34-.84Z"/><path class="cls-2" d="M54.43,70.05c.25.43.42.59.54.47.55-.38.68.59,0,.29a.94.94,0,0,1-.5-.76Z"/><path class="cls-2" d="M54,70.22a6.62,6.62,0,0,0,.54.89c.55.84-.42.88-.33.46,0-.21.16-.21.12-.42s-.25-.63-.33-.93Z"/><path class="cls-2" d="M142.72,66a1.15,1.15,0,0,1,1.6.89c.59,2.1-.12,3.28-1.72,3.45a1.51,1.51,0,0,0-1.52-.67A2.72,2.72,0,0,1,142.72,66Z"/><path class="cls-2" d="M142.34,65.67a3.24,3.24,0,0,0-1.72,4c-1.9-1.22-1-3.67,1.72-4Z"/><path class="cls-2" d="M141.92,65.34c.38-.13.68.08,1,.12a2,2,0,0,1,1.22.34,1.74,1.74,0,0,0-.67-1.43,2.07,2.07,0,0,0-1.9-1.64c.84.37,1.31.84,1.27,1.47a1.73,1.73,0,0,0-.89,1.14Z"/><path class="cls-2" d="M141.5,70.22c0,.09,0,.21-.13.3-.12.25-.42.67-.12.88l.08.09a.19.19,0,0,1-.29.12c-.26-.08.29-1.13.42-1.34l0,0Z"/><path class="cls-2" d="M142.05,70.39c-.21.46-.25.68-.09.72.64.21-.08.88-.25.12-.08-.25,0-.54.34-.84Z"/><path class="cls-2" d="M141.12,70.05c-.25.43-.42.59-.55.47-.54-.38-.67.59.05.29a.94.94,0,0,0,.5-.76Z"/><path class="cls-2" d="M141.5,70.22a5.58,5.58,0,0,1-.55.89c-.54.84.42.88.34.46,0-.21-.17-.21-.13-.42s.3-.63.34-.93Z"/><path class="cls-2" d="M48.61,61.8a1,1,0,0,1-1.47.63c-1.77-.72-2.23-1.85-1.48-3a1.33,1.33,0,0,0,1.27-.72,2.39,2.39,0,0,1,1.68,3.12Z"/><path class="cls-2" d="M49.08,61.67a2.87,2.87,0,0,0-1.9-3.33c1.86-.67,3,1.31,1.9,3.33Z"/><path class="cls-2" d="M49.54,61.55c-.13.33-.42.42-.59.63s-.51.63-.88.67a1.69,1.69,0,0,0,1.34.3,1.76,1.76,0,0,0,2.15-.47c-.71.42-1.26.47-1.72.09a1.7,1.7,0,0,0-.3-1.22Z"/><path class="cls-2" d="M46.34,58.68c0-.08-.13-.17-.17-.25s-.25-.68-.55-.55c0,0-.08,0-.12,0s0-.21,0-.25.63.8.72,1l.08.08Z"/><path class="cls-2" d="M46,59c-.21-.38-.34-.51-.46-.43-.51.34-.59-.54,0-.25.21.09.33.34.42.68Z"/><path class="cls-2" d="M46.68,58.51c-.17-.42-.17-.59,0-.63.55-.17,0-.8-.25-.13a1,1,0,0,0,.3.76Z"/><path class="cls-2" d="M46.34,58.68c-.17-.38-.25-.67-.34-.84-.29-.84-.84-.21-.5,0,.16.08.21,0,.33.12s.34.59.51.76Z"/><path class="cls-2" d="M146.89,61.8a1,1,0,0,0,1.48.63c1.77-.72,2.23-1.85,1.47-3a1.32,1.32,0,0,1-1.26-.72,2.43,2.43,0,0,0-1.69,3.12Z"/><path class="cls-2" d="M146.43,61.67a2.83,2.83,0,0,1,1.9-3.33c-1.82-.67-3,1.31-1.9,3.33Z"/><path class="cls-2" d="M146,61.55c.12.33.42.42.59.63s.5.63.88.67a1.71,1.71,0,0,1-1.35.3,1.75,1.75,0,0,1-2.14-.47c.71.42,1.26.47,1.72.09a1.49,1.49,0,0,1,.3-1.22Z"/><path class="cls-2" d="M149.17,58.68c0-.08.12-.17.17-.25s.25-.68.54-.55c.05,0,.09,0,.13,0s0-.21,0-.25-.63.8-.72,1l-.08.08Z"/><path class="cls-2" d="M149.59,59c.21-.38.34-.51.46-.43.51.34.59-.54,0-.25a.91.91,0,0,0-.42.68Z"/><path class="cls-2" d="M148.87,58.51c.17-.42.17-.59,0-.63-.54-.17.05-.8.22-.13a1,1,0,0,1-.26.76Z"/><path class="cls-2" d="M149.21,58.68c.17-.38.25-.67.34-.84.29-.84.84-.21.5,0-.17.08-.21,0-.34.12s-.33.59-.5.76Z"/><path class="cls-2" d="M45.87,70.1c-.54-.13-1,.25-1,.92-.08,1.65.64,2.4,1.86,2.24a1.06,1.06,0,0,1,1-.72,2.08,2.08,0,0,0-1.86-2.44Z"/><path class="cls-2" d="M46.13,69.8a2.45,2.45,0,0,1,1.94,2.66c1.18-1.18.08-2.83-1.94-2.66Z"/><path class="cls-2" d="M46.38,69.51c-.29,0-.46.17-.72.25a1.22,1.22,0,0,0-.84.46,1.37,1.37,0,0,1,.25-1.13,1.54,1.54,0,0,1,1.1-1.52c-.59.42-.8.84-.67,1.31a1.07,1.07,0,0,1,.88.63Z"/><path class="cls-2" d="M47.6,72.84c0,.08,0,.16.09.25s.38.5.12.71a.1.1,0,0,0-.08.09c0,.12.12.17.21.08s-.3-.88-.38-1l0-.08Z"/><path class="cls-2" d="M47.14,73.17c.17.34.21.51.08.59-.5.21.13.72.21.09.09-.21,0-.43-.29-.68Z"/><path class="cls-2" d="M47.9,72.67c.21.33.33.42.46.33.42-.33.55.42,0,.26a.78.78,0,0,1-.46-.59Z"/><path class="cls-2" d="M47.6,72.84c.21.33.38.54.47.67.46.63-.3.72-.26.38,0-.17.13-.17.09-.34s-.26-.46-.3-.71Z"/><path class="cls-2" d="M149.63,70.1c.55-.13,1,.25,1,.92.09,1.65-.63,2.4-1.85,2.24a1.06,1.06,0,0,0-1-.72,2.13,2.13,0,0,1,1.85-2.44Z"/><path class="cls-2" d="M149.42,69.8a2.45,2.45,0,0,0-1.94,2.66c-1.18-1.18-.08-2.83,1.94-2.66Z"/><path class="cls-2" d="M149.17,69.51c.29,0,.46.17.71.25a1.22,1.22,0,0,1,.85.46,1.34,1.34,0,0,0-.26-1.13,1.52,1.52,0,0,0-1.09-1.52c.59.42.8.84.67,1.31a1,1,0,0,0-.88.63Z"/><path class="cls-2" d="M148.16,72.79A1.12,1.12,0,0,1,148,73c-.13.17-.46.47-.25.68,0,0,.08.08,0,.08s-.13.13-.25,0,.42-.84.54-1l0,0Z"/><path class="cls-2" d="M148.45,73.3c-.25.29-.29.46-.17.55.47.29-.21.67-.25,0,0-.17.17-.38.42-.59Z"/><path class="cls-2" d="M147.86,72.58c-.25.3-.42.38-.5.26-.34-.43-.64.33-.05.25.26,0,.43-.21.55-.51Z"/><path class="cls-2" d="M148.16,72.84c-.26.29-.47.46-.59.58-.59.55.17.76.17.43,0-.17-.09-.17,0-.34s.33-.46.42-.67Z"/><path class="cls-2" d="M41.37,67.65c-.09.47-.51.68-1.06.47-1.26-.47-1.6-1.27-1.09-2.15a.94.94,0,0,0,.88-.51,1.74,1.74,0,0,1,1.27,2.19Z"/><path class="cls-2" d="M41.66,67.61a2.08,2.08,0,0,0-1.39-2.36c1.31-.54,2.19.85,1.39,2.36Z"/><path class="cls-2" d="M42,67.49c-.08.25-.29.29-.42.46s-.34.46-.63.5a1.29,1.29,0,0,0,1,.21,1.26,1.26,0,0,0,1.51-.33c-.5.29-.92.33-1.22.08a1,1,0,0,0-.21-.92Z"/><path class="cls-2" d="M39.68,65.51a.5.5,0,0,0-.12-.17c-.09-.17-.17-.47-.43-.38,0,0-.08,0-.08,0a.15.15,0,0,1,0-.21c.13-.09.47.59.51.71l.08.05Z"/><path class="cls-2" d="M39.39,65.72c-.13-.26-.26-.38-.34-.3-.34.25-.42-.38,0-.21a.74.74,0,0,1,.3.51Z"/><path class="cls-2" d="M39.89,65.38c-.12-.3-.12-.42,0-.46.42-.13,0-.55-.17-.09a1.19,1.19,0,0,0,.21.55Z"/><path class="cls-2" d="M39.64,65.51a4.67,4.67,0,0,1-.25-.59c-.21-.59-.59-.13-.38,0s.17,0,.25.08.3.38.38.51Z"/><path class="cls-2" d="M154.18,67.65c.08.47.51.68,1,.47,1.27-.47,1.6-1.27,1.1-2.15-.46,0-.8-.21-.89-.51a1.74,1.74,0,0,0-1.26,2.19Z"/><path class="cls-2" d="M153.84,67.61a2.1,2.1,0,0,1,1.39-2.36c-1.26-.54-2.14.85-1.39,2.36Z"/><path class="cls-2" d="M153.55,67.49c.08.25.29.29.42.46s.34.46.63.5a1.29,1.29,0,0,1-1,.21,1.26,1.26,0,0,1-1.51-.33c.5.29.92.33,1.22.08a1,1,0,0,1,.21-.92Z"/><path class="cls-2" d="M155.86,65.51a.67.67,0,0,1,.13-.17c.09-.17.17-.47.42-.38.05,0,.09,0,.09,0a.15.15,0,0,0,0-.21c-.13-.09-.47.59-.51.71l-.09.05Z"/><path class="cls-2" d="M156.12,65.72c.12-.26.25-.38.34-.3.33.25.42-.38-.05-.21a.92.92,0,0,0-.29.51Z"/><path class="cls-2" d="M155.61,65.38c.13-.3.13-.42,0-.46-.42-.13,0-.55.17-.09a.66.66,0,0,1-.21.55Z"/><path class="cls-2" d="M155.86,65.51a5.16,5.16,0,0,0,.26-.59c.21-.59.59-.13.38,0s-.17,0-.26.08-.25.38-.38.51Z"/><path class="cls-2" d="M32.31,147c.84-.89,0-1.69.8-1.81a1.71,1.71,0,0,1,2,1.6c.21,4.17-5,4.63-6.36,1.09-1.18-3,1.27-5.94,3.25-6.49,3.75-1.05,8.29-.33,12.89,3.12,10.32,7.75,17.86,11.63,23.54,10.57a8.29,8.29,0,0,0,4-1.81c12.93,12.26,37.7,12.26,50.63,0a8.69,8.69,0,0,0,4,1.81c5.69,1.06,13.23-2.82,23.55-10.57,4.59-3.45,9.14-4.21,12.89-3.12,2,.55,4.38,3.46,3.24,6.49-1.34,3.54-6.57,3.08-6.36-1.09a1.71,1.71,0,0,1,2-1.6c.85.16,0,.92.8,1.81a1.2,1.2,0,0,0-.75-2,1.86,1.86,0,0,0-2.32,1.72c-.21,4.68,5.39,4.93,6.82,1.27a5.43,5.43,0,0,0-3.32-6.87c-4.68-1.39-9.06-.13-13.23,3.08-10.24,7.83-18.07,11.41-23.26,10.4a7.74,7.74,0,0,1-3.66-1.68,10.17,10.17,0,0,0,2-2.78c3.16-6.41-6.15-7.59-5-1.48a8.12,8.12,0,0,0,2,4.13c-12.84,11.67-36.73,11.67-49.58,0a8.63,8.63,0,0,0,2-4.13c1.22-6.11-8.13-4.93-5,1.48a11.24,11.24,0,0,0,2,2.78,8.3,8.3,0,0,1-3.66,1.68c-5.18,1-13-2.57-23.25-10.4-4.18-3.21-8.56-4.47-13.23-3.08A5.42,5.42,0,0,0,28.52,148c1.43,3.66,7,3.41,6.82-1.27A1.87,1.87,0,0,0,33,145a1.19,1.19,0,0,0-.72,2ZM123,152.37a8.72,8.72,0,0,0,2-2.61c2.4-5-4.47-6.15-3.71-1.23a7.09,7.09,0,0,0,1.73,3.84Zm-50.39,0a8.72,8.72,0,0,1-2-2.61c-2.4-5,4.47-6.15,3.71-1.23a7.09,7.09,0,0,1-1.73,3.84Z"/><path class="cls-2" d="M63.78,151.36a1.37,1.37,0,0,1-2.19-.09c-1.77-1.89-1.69-3.58-.09-4.63a1.88,1.88,0,0,0,2-.13,3.3,3.3,0,0,1,.3,4.85Z"/><path class="cls-2" d="M64.41,151.53c1.31-2.07.93-4-.42-5.23,2.65.17,3,3.33.42,5.23Z"/><path class="cls-2" d="M65,151.61c-.38.34-.76.25-1.09.42a2.23,2.23,0,0,1-1.52.3,2.18,2.18,0,0,0,1.48,1.13,2.35,2.35,0,0,0,2.9.68c-1.09.08-1.85-.17-2.19-.89a1.77,1.77,0,0,0,.42-1.64Z"/><path class="cls-2" d="M62.77,146.22c0-.13,0-.25,0-.38,0-.34.08-1-.38-1-.05,0-.13,0-.13,0s0-.3.21-.3c.34,0,.3,1.39.3,1.64l0,.09Z"/><path class="cls-2" d="M62.09,146.34c0-.59-.12-.84-.33-.8-.8.13-.38-1,.21-.29a1.27,1.27,0,0,1,.12,1.09Z"/><path class="cls-2" d="M63.23,146.18c0-.59.13-.85.34-.8.8.12.38-1-.21-.3a1.34,1.34,0,0,0-.13,1.1Z"/><path class="cls-2" d="M62.73,146.22a8.58,8.58,0,0,1,.08-1.27c.13-1.18-.93-.71-.59-.33.17.21.29.12.38.38a10.32,10.32,0,0,0,.13,1.22Z"/><path class="cls-2" d="M131.77,151.36a1.37,1.37,0,0,0,2.19-.09c1.81-1.89,1.69-3.58.09-4.63a1.9,1.9,0,0,1-2-.13,3.27,3.27,0,0,0-.29,4.85Z"/><path class="cls-2" d="M131.14,151.53c-1.31-2.07-.93-4,.42-5.23-2.7.17-3,3.33-.42,5.23Z"/><path class="cls-2" d="M130.51,151.61c.37.34.75.25,1.09.42a2.23,2.23,0,0,0,1.52.3,2.21,2.21,0,0,1-1.48,1.13,2.35,2.35,0,0,1-2.9.68c1.09.08,1.85-.17,2.19-.89a1.77,1.77,0,0,1-.42-1.64Z"/><path class="cls-2" d="M132.78,146.22c0-.13,0-.25,0-.38,0-.34-.08-1,.38-1,0,0,.13,0,.13,0s0-.3-.21-.3c-.34,0-.3,1.39-.3,1.64l0,.09Z"/><path class="cls-2" d="M133.46,146.34c0-.59.12-.84.33-.8.8.13.38-1-.21-.29a1.15,1.15,0,0,0-.12,1.09Z"/><path class="cls-2" d="M132.27,146.18c0-.59-.12-.85-.33-.8-.8.12-.42-1,.21-.3a1.18,1.18,0,0,1,.12,1.1Z"/><path class="cls-2" d="M132.82,146.22a8.58,8.58,0,0,0-.08-1.27c-.13-1.18.93-.71.59-.33-.17.21-.3.12-.38.38s0,.88-.13,1.22Z"/><path class="cls-2" d="M57.71,156.29a1.21,1.21,0,0,0-1.89-.47c-2,1.22-2.32,2.7-1.18,4a1.66,1.66,0,0,1,1.68.59,3,3,0,0,0,1.39-4.12Z"/><path class="cls-2" d="M58.3,156.33a3.48,3.48,0,0,1-1.64,4.42c2.36.46,3.41-2.15,1.64-4.42Z"/><path class="cls-2" d="M58.85,156.37c-.21-.38-.59-.42-.84-.63a2.13,2.13,0,0,0-1.22-.63,1.85,1.85,0,0,1,1.55-.64,2.18,2.18,0,0,1,2.7.13,1.84,1.84,0,0,0-2.11.21,1.81,1.81,0,0,1-.08,1.56Z"/><path class="cls-2" d="M55.57,160.5c0,.13-.09.21-.13.34-.09.29-.17.84-.55.8h-.13a.24.24,0,0,0,.13.33c.29.13.59-1.13.68-1.34v-.13Z"/><path class="cls-2" d="M55,160.25q-.26.75-.51.63c-.67-.3-.59.76.13.29a1.06,1.06,0,0,0,.38-.92Z"/><path class="cls-2" d="M56,160.63c-.12.5-.08.75.09.8.72.08.08,1-.25.21a1.14,1.14,0,0,1,.16-1Z"/><path class="cls-2" d="M55.52,160.5c-.13.5-.21.88-.25,1.09-.17,1.06-1,.43-.59.13.21-.13.25,0,.42-.25s.25-.68.42-1Z"/><path class="cls-2" d="M137.83,156.29a1.22,1.22,0,0,1,1.9-.47c2,1.22,2.32,2.7,1.18,4a1.66,1.66,0,0,0-1.68.59,3,3,0,0,1-1.4-4.12Z"/><path class="cls-2" d="M137.25,156.33a3.46,3.46,0,0,0,1.64,4.42c-2.36.46-3.41-2.15-1.64-4.42Z"/><path class="cls-2" d="M136.7,156.37c.21-.38.59-.42.84-.63a2.13,2.13,0,0,1,1.22-.63,1.87,1.87,0,0,0-1.56-.64,2.16,2.16,0,0,0-2.69.13,1.83,1.83,0,0,1,2.1.21,1.72,1.72,0,0,0,.09,1.56Z"/><path class="cls-2" d="M140,160.5c.05.13.09.21.13.34.09.29.17.84.55.8h.12a.23.23,0,0,1-.12.33c-.3.13-.59-1.13-.68-1.34v-.13Z"/><path class="cls-2" d="M140.53,160.25q.25.75.51.63c.67-.3.59.76-.13.29a1.06,1.06,0,0,1-.38-.92Z"/><path class="cls-2" d="M139.52,160.63c.13.5.08.75-.08.8-.72.08-.09,1,.25.21a1.15,1.15,0,0,0-.17-1Z"/><path class="cls-2" d="M140,160.5c.13.5.22.88.26,1.09.17,1.06,1,.43.59.13-.21-.13-.26,0-.42-.25s-.26-.68-.43-1Z"/><path class="cls-2" d="M54.72,147.61a1.09,1.09,0,0,1-1.52-.84c-.54-2,.13-3.16,1.69-3.29a1.41,1.41,0,0,0,1.43.63,2.61,2.61,0,0,1-1.6,3.5Z"/><path class="cls-2" d="M55.1,147.94a3.09,3.09,0,0,0,1.64-3.83c1.82,1.1.89,3.46-1.64,3.83Z"/><path class="cls-2" d="M55.52,148.24a2.06,2.06,0,0,1-.92-.13,1.85,1.85,0,0,1-1.18-.33,1.64,1.64,0,0,0,.63,1.34,1.89,1.89,0,0,0,1.81,1.56c-.84-.33-1.22-.8-1.22-1.43a1.44,1.44,0,0,0,.88-1Z"/><path class="cls-2" d="M55.9,143.61c0-.09,0-.21.08-.3.13-.25.43-.63.13-.84,0,0-.08-.09-.08-.09a.17.17,0,0,1,.25-.12c.25.08-.3,1.09-.38,1.26v.09Z"/><path class="cls-2" d="M55.35,143.44c.22-.42.22-.63.09-.72-.59-.21.08-.84.25-.12.08.25-.08.54-.34.84Z"/><path class="cls-2" d="M56.24,143.77c.25-.42.42-.54.55-.46.5.38.63-.55,0-.29-.25.08-.38.38-.5.75Z"/><path class="cls-2" d="M55.86,143.56c.21-.42.42-.67.5-.84.55-.8-.38-.88-.29-.46,0,.21.13.21.13.42s-.26.63-.34.88Z"/><path class="cls-2" d="M140.83,147.61a1.07,1.07,0,0,0,1.51-.84c.55-2-.12-3.16-1.68-3.29a1.41,1.41,0,0,1-1.43.63,2.61,2.61,0,0,0,1.6,3.5Z"/><path class="cls-2" d="M140.45,147.94a3.11,3.11,0,0,1-1.65-3.83c-1.81,1.1-.92,3.46,1.65,3.83Z"/><path class="cls-2" d="M140,148.24a2.06,2.06,0,0,0,.92-.13,1.86,1.86,0,0,0,1.18-.33,1.64,1.64,0,0,1-.63,1.34,1.9,1.9,0,0,1-1.81,1.56c.84-.33,1.22-.8,1.22-1.43a1.34,1.34,0,0,1-.88-1Z"/><path class="cls-2" d="M139.65,143.61c-.05-.09-.05-.21-.09-.3-.12-.25-.42-.63-.12-.84,0,0,.08-.09.08-.09a.18.18,0,0,0-.25-.12c-.25.08.29,1.09.38,1.26v.09Z"/><path class="cls-2" d="M140.15,143.44c-.21-.42-.21-.63-.08-.72.59-.21-.09-.84-.25-.12a1.07,1.07,0,0,0,.33.84Z"/><path class="cls-2" d="M139.27,143.77c-.25-.42-.42-.54-.55-.46-.5.38-.63-.55,0-.29.26.08.42.38.51.75Z"/><path class="cls-2" d="M139.65,143.56c-.21-.42-.42-.67-.51-.84-.5-.8.38-.88.3-.46-.05.21-.17.21-.13.42s.29.63.34.88Z"/><path class="cls-2" d="M50.72,151.65a.93.93,0,0,0-1.39-.59c-1.69.68-2.11,1.77-1.43,2.91a1.32,1.32,0,0,1,1.22.67,2.33,2.33,0,0,0,1.6-3Z"/><path class="cls-2" d="M51.14,151.74a2.75,2.75,0,0,1-1.81,3.2c1.77.67,2.91-1.22,1.81-3.2Z"/><path class="cls-2" d="M51.56,151.86c-.12-.33-.42-.42-.59-.59a1.45,1.45,0,0,0-.88-.63,1.56,1.56,0,0,1,1.3-.29,1.75,1.75,0,0,1,2.07.42c-.68-.38-1.22-.42-1.64-.09a1.32,1.32,0,0,1-.26,1.18Z"/><path class="cls-2" d="M48.53,154.64c0,.09-.13.13-.13.21s-.21.64-.55.55c0,0-.08,0-.12,0a.15.15,0,0,0,0,.25c.21.13.59-.8.67-1l.09-.05Z"/><path class="cls-2" d="M48.15,154.35c-.21.38-.34.5-.46.42-.47-.3-.55.51,0,.25.21-.08.34-.33.42-.67Z"/><path class="cls-2" d="M48.82,154.77c-.17.38-.17.59,0,.63.55.17,0,.76-.21.13a1.24,1.24,0,0,1,.25-.76Z"/><path class="cls-2" d="M48.49,154.6c-.17.38-.26.63-.34.84-.3.8-.8.17-.46.05.16-.09.21,0,.33-.13a3.92,3.92,0,0,0,.47-.76Z"/><path class="cls-2" d="M144.83,151.65a.93.93,0,0,1,1.39-.59c1.68.68,2.11,1.77,1.43,2.91a1.32,1.32,0,0,0-1.22.67,2.3,2.3,0,0,1-1.6-3Z"/><path class="cls-2" d="M144.36,151.74a2.76,2.76,0,0,0,1.82,3.2c-1.73.67-2.87-1.22-1.82-3.2Z"/><path class="cls-2" d="M144,151.86c.12-.33.42-.42.59-.59s.46-.59.88-.63a1.51,1.51,0,0,0-1.26-.29,1.75,1.75,0,0,0-2.07.42,1.42,1.42,0,0,1,1.65-.09,1.09,1.09,0,0,0,.21,1.18Z"/><path class="cls-2" d="M147,154.64c0,.09.12.13.12.21s.22.64.55.55c.05,0,.09,0,.13,0a.16.16,0,0,1,0,.25c-.21.13-.59-.8-.68-1l-.08-.05Z"/><path class="cls-2" d="M147.4,154.35c.21.38.34.5.46.42.47-.3.55.51,0,.25-.25-.08-.38-.33-.42-.67Z"/><path class="cls-2" d="M146.68,154.77c.17.38.17.59,0,.63-.54.17.05.76.21.13.09-.21,0-.47-.25-.76Z"/><path class="cls-2" d="M147,154.6c.17.38.25.63.34.84.29.8.8.17.46.05-.17-.09-.21,0-.34-.13s-.29-.55-.46-.76Z"/><path class="cls-2" d="M48.11,143.69c-.51.13-.93-.25-1-.88-.09-1.56.63-2.28,1.77-2.15a1.08,1.08,0,0,0,1,.71,2,2,0,0,1-1.77,2.32Z"/><path class="cls-2" d="M48.32,144a2.34,2.34,0,0,0,1.85-2.53c1.14,1.14.09,2.69-1.85,2.53Z"/><path class="cls-2" d="M48.57,144.28a1.67,1.67,0,0,1-.67-.25,1.21,1.21,0,0,1-.8-.47,1.27,1.27,0,0,0,.25,1.1,1.45,1.45,0,0,0,1,1.43,1.23,1.23,0,0,1-.67-1.26.86.86,0,0,0,.84-.55Z"/><path class="cls-2" d="M49.62,141a.58.58,0,0,0,.13-.21c.13-.17.42-.42.21-.59a.14.14,0,0,1,0-.08c0-.09.13-.13.21,0s-.38.75-.51.88v0Z"/><path class="cls-2" d="M49.29,140.74c.21-.29.25-.42.16-.5-.41-.26.22-.59.22-.05a.88.88,0,0,1-.38.55Z"/><path class="cls-2" d="M49.88,141.12c.25-.25.38-.34.46-.25.34.38.59-.3,0-.21a.75.75,0,0,0-.5.46Z"/><path class="cls-2" d="M49.62,140.91c.22-.25.43-.42.55-.55.51-.5-.12-.71-.12-.38,0,.17.08.17,0,.3s-.34.46-.43.63Z"/><path class="cls-2" d="M147.44,143.69c.51.13.93-.25,1-.88.08-1.56-.63-2.28-1.77-2.15a1.08,1.08,0,0,1-1,.71,2,2,0,0,0,1.77,2.32Z"/><path class="cls-2" d="M147.23,144a2.34,2.34,0,0,1-1.85-2.53c-1.14,1.14-.09,2.69,1.85,2.53Z"/><path class="cls-2" d="M147,144.28a1.67,1.67,0,0,0,.67-.25,1.12,1.12,0,0,0,.8-.47,1.27,1.27,0,0,1-.25,1.1,1.45,1.45,0,0,1-1.06,1.43,1.25,1.25,0,0,0,.68-1.26.85.85,0,0,1-.84-.55Z"/><path class="cls-2" d="M145.92,141a.78.78,0,0,1-.12-.21c-.13-.17-.42-.42-.21-.59a.14.14,0,0,0,0-.08c0-.09-.13-.13-.21,0s.38.75.5.88v0Z"/><path class="cls-2" d="M146.26,140.74c-.21-.29-.25-.42-.17-.5.42-.26-.21-.59-.21-.05a.75.75,0,0,0,.38.55Z"/><path class="cls-2" d="M145.67,141.12c-.25-.25-.38-.34-.46-.25-.34.38-.59-.3,0-.21a.75.75,0,0,1,.5.46Z"/><path class="cls-2" d="M145.92,140.91c-.21-.25-.42-.42-.54-.55-.51-.5.12-.71.12-.38,0,.17-.08.17,0,.3s.34.46.42.63Z"/><path class="cls-2" d="M43.73,146.05a.71.71,0,0,0-1-.46c-1.23.46-1.56,1.22-1.06,2.06.47,0,.76.21.85.51a1.64,1.64,0,0,0,1.22-2.11Z"/><path class="cls-2" d="M44.06,146.09a1.9,1.9,0,0,1-1.34,2.23c1.22.55,2.06-.8,1.34-2.23Z"/><path class="cls-2" d="M44.36,146.18c-.09-.21-.3-.3-.42-.43a1.05,1.05,0,0,0-.59-.46,1.05,1.05,0,0,1,.92-.17,1.24,1.24,0,0,1,1.48.34c-.46-.29-.89-.34-1.18-.08a1.11,1.11,0,0,1-.21.8Z"/><path class="cls-2" d="M42.13,148.11a.59.59,0,0,0-.13.17c-.08.17-.17.47-.38.38,0,0-.08,0-.08,0s0,.13,0,.17.42-.55.5-.67l.05,0Z"/><path class="cls-2" d="M41.87,147.9c-.12.26-.25.34-.33.3-.34-.21-.38.38,0,.17a.56.56,0,0,0,.29-.47Z"/><path class="cls-2" d="M42.38,148.24c-.13.25-.13.42,0,.42.38.13-.05.55-.17.09a.55.55,0,0,1,.21-.51Z"/><path class="cls-2" d="M42.13,148.11c-.13.26-.21.47-.26.59-.21.55-.59.13-.33,0s.17,0,.25-.08.21-.38.34-.51Z"/><path class="cls-2" d="M151.78,146.05a.71.71,0,0,1,1-.46c1.22.46,1.56,1.22,1.05,2.06-.46,0-.75.21-.84.51a1.7,1.7,0,0,1-1.22-2.11Z"/><path class="cls-2" d="M151.48,146.09a1.91,1.91,0,0,0,1.35,2.23c-1.26.55-2.1-.8-1.35-2.23Z"/><path class="cls-2" d="M151.19,146.18c.08-.21.29-.3.42-.43a1.05,1.05,0,0,1,.59-.46,1.07,1.07,0,0,0-.93-.17,1.22,1.22,0,0,0-1.47.34c.46-.29.88-.34,1.18-.08a.81.81,0,0,0,.21.8Z"/><path class="cls-2" d="M153.38,148.11a1.47,1.47,0,0,1,.13.17c.08.17.16.47.38.38,0,0,.08,0,.08,0s0,.13,0,.17-.42-.55-.51-.67l0,0Z"/><path class="cls-2" d="M153.67,147.9c.13.26.26.34.34.3.34-.21.38.38,0,.17-.17-.05-.25-.21-.3-.47Z"/><path class="cls-2" d="M153.17,148.24c.13.25.13.42,0,.42-.38.13,0,.55.17.09a.55.55,0,0,0-.21-.51Z"/><path class="cls-2" d="M153.42,148.11a4.67,4.67,0,0,1,.25.59c.22.55.59.13.34,0s-.17,0-.25-.08-.21-.38-.34-.51Z"/><path class="cls-2" d="M82.86,161A6.59,6.59,0,0,0,77,159.11a9.29,9.29,0,0,1-3-.47,5.77,5.77,0,0,0-4.8.72,1.77,1.77,0,0,1-.88.17,9.87,9.87,0,0,0,6.7.29,9.89,9.89,0,0,0-2.36,1.73,5.68,5.68,0,0,1-2.78.3c-1-.17-1.9.38-2.57,1.64a3,3,0,0,1-.93,1.22,8.94,8.94,0,0,0,1.69-.63c.84-.38,2,0,3.28-1.1a12.57,12.57,0,0,0-1.22,1.82c-1,1.26-3,1.13-3.12,2.86,0,.46-.21.72-.55.8,1.52,0,2.24-.38,2.74-1.26a15.69,15.69,0,0,0,0,7.49,7.14,7.14,0,0,1,1.14-2.4,2.26,2.26,0,0,0-.46-3.07c-.51-.42-.55-1.18-.08-2.45.12-.33.25-.67.37-1a2.67,2.67,0,0,0,.89,2.52,2.83,2.83,0,0,1,1.14,2.28,7,7,0,0,1,.59-1.6c1.09-2.61-2.07-2.78-1.56-5A9.5,9.5,0,0,1,73,162c-.63,1.68-.42,2.78.55,3.41,1.22.84,1.56,1.81,1.14,2.78,1.47-1.18,1-3.67-.38-4.68a1.58,1.58,0,0,1-.59-2.15,9.12,9.12,0,0,1,2.44-1.26c-.54.84-.33,1.94.64,3.33.88,1.22,1.09,2.1.63,2.65,1.18-.67,1.72-.76,1.56-2.32a2.21,2.21,0,0,0-1.35-2.06c-1.14-.51-1.43-1.14-1.1-1.69a6.55,6.55,0,0,1,6.32,1Z"/><path class="cls-2" d="M112.65,161a6.59,6.59,0,0,1,5.85-1.89,9.28,9.28,0,0,0,3-.47,5.77,5.77,0,0,1,4.8.72,1.84,1.84,0,0,0,.89.17,9.87,9.87,0,0,1-6.7.29,9.89,9.89,0,0,1,2.36,1.73,5.67,5.67,0,0,0,2.78.3c1-.17,1.89.38,2.57,1.64a2.9,2.9,0,0,0,.93,1.22,8.47,8.47,0,0,1-1.69-.63c-.84-.38-2,0-3.28-1.1a12.57,12.57,0,0,1,1.22,1.82c1,1.26,3,1.13,3.11,2.86.05.46.22.72.55.8-1.52,0-2.23-.38-2.74-1.26a15.44,15.44,0,0,1,0,7.49,6.77,6.77,0,0,0-1.14-2.4,2.26,2.26,0,0,1,.47-3.07c.5-.42.55-1.18.08-2.45-.13-.33-.25-.67-.38-1a2.64,2.64,0,0,1-.88,2.52,2.83,2.83,0,0,0-1.14,2.28,7,7,0,0,0-.59-1.6c-1.09-2.61,2.06-2.78,1.56-5a9.84,9.84,0,0,0-1.73-2c.63,1.68.42,2.78-.55,3.41-1.22.84-1.55,1.81-1.13,2.78-1.48-1.18-1-3.67.38-4.68a1.58,1.58,0,0,0,.58-2.15,8.83,8.83,0,0,0-2.44-1.26c.55.84.34,1.94-.63,3.33-.88,1.22-1.09,2.1-.63,2.65-1.18-.67-1.73-.76-1.56-2.32a2.21,2.21,0,0,1,1.35-2.06c1.13-.51,1.43-1.14,1.09-1.69a6.54,6.54,0,0,0-6.31,1Z"/><path class="cls-2" d="M94.15,160.63a4,4,0,0,1-3.54-1.14,5,5,0,0,0-1.64-.85,3.52,3.52,0,0,1-2.11-2.06.85.85,0,0,0-.37-.38,5.86,5.86,0,0,1,3.36,2.23,5.92,5.92,0,0,1-.54-1.68A3.65,3.65,0,0,0,88,155.61a1.46,1.46,0,0,1-.67-1.68,2.26,2.26,0,0,0,0-.93,5.06,5.06,0,0,1,.59.93c.25.5,1,.76,1.22,1.72a7,7,0,0,1,0-1.3c0-1-1.05-1.65-.5-2.49a.52.52,0,0,0,0-.59c.75.51,1,1,.88,1.6a9.11,9.11,0,0,1,2.7-3.66,4.59,4.59,0,0,0-.3,1.6,1.38,1.38,0,0,1-1.31,1.35c-.42,0-.67.38-.92,1.18a3,3,0,0,0-.17.63,1.57,1.57,0,0,1,1.3-.93,1.6,1.6,0,0,0,1.35-.71,4.19,4.19,0,0,0-.29,1c-.38,1.68-2,.63-2.53,1.89a9.18,9.18,0,0,0,.13,1.6c.29-1.05.8-1.51,1.47-1.47.89,0,1.43-.34,1.56-1a1.93,1.93,0,0,1-1.85,2.19.94.94,0,0,0-1.06.84,5.22,5.22,0,0,0,.72,1.48c0-.59.5-1.06,1.52-1.39s1.3-.64,1.26-1.06c.34.76.59,1,0,1.69a1.45,1.45,0,0,1-1.39.55c-.72-.17-1.1,0-1.14.42a5.17,5.17,0,0,0,3.58,1.52Z"/><path class="cls-2" d="M101.4,160.63a4,4,0,0,0,3.54-1.14,5,5,0,0,1,1.64-.85,3.48,3.48,0,0,0,2.1-2.06.87.87,0,0,1,.38-.38,6.14,6.14,0,0,0-3.41,2.23,6.25,6.25,0,0,0,.55-1.68,3.71,3.71,0,0,1,1.26-1.14,1.47,1.47,0,0,0,.68-1.68,2.26,2.26,0,0,1,0-.93,5.06,5.06,0,0,0-.59.93c-.25.5-1,.76-1.22,1.72a7,7,0,0,0,0-1.3c0-1,1-1.65.5-2.49a.49.49,0,0,1,0-.59c-.76.51-1,1-.88,1.6a9.58,9.58,0,0,0-2.66-3.66,5.11,5.11,0,0,1,.3,1.6,1.37,1.37,0,0,0,1.3,1.35c.43,0,.68.38.93,1.18,0,.21.13.42.17.63a1.58,1.58,0,0,0-1.31-.93,1.59,1.59,0,0,1-1.34-.71,4.74,4.74,0,0,1,.29,1c.38,1.68,2,.63,2.53,1.89a9.18,9.18,0,0,1-.13,1.6c-.29-1.05-.8-1.51-1.47-1.47-.89,0-1.44-.34-1.56-1a1.92,1.92,0,0,0,1.85,2.19.93.93,0,0,1,1.05.84,5.21,5.21,0,0,1-.71,1.48c0-.59-.51-1.06-1.52-1.39s-1.31-.64-1.26-1.06c-.34.76-.59,1,.08,1.69a1.45,1.45,0,0,0,1.39.55c.72-.17,1.1,0,1.14.42a5.37,5.37,0,0,1-3.62,1.52Z"/><path class="cls-2" d="M83.58,158.31a6.31,6.31,0,0,1-4-4,8.54,8.54,0,0,0-1.64-2.23,5.34,5.34,0,0,1-1.47-4.22,1.85,1.85,0,0,0-.21-.76,9.11,9.11,0,0,1,3.07,5.31,10.7,10.7,0,0,1,.38-2.65,4.7,4.7,0,0,0-1-2.4,2.21,2.21,0,0,1,.25-2.74,3,3,0,0,0,.59-1.26,7.38,7.38,0,0,1,.21,1.64c.05.84.8,1.64.51,3.12a8.41,8.41,0,0,1,1-1.77c.59-1.35-.34-2.91,1-3.71.34-.21.51-.46.42-.76a2.37,2.37,0,0,1,.13,2.74,14.4,14.4,0,0,1,6.06-3.12,7.27,7.27,0,0,0-1.47,1.94,2.09,2.09,0,0,1-2.7.93c-.59-.26-1.18.08-2,1-.21.21-.42.46-.63.71a2.38,2.38,0,0,1,2.4-.34,2.5,2.5,0,0,0,2.32,0,5.63,5.63,0,0,0-1.06,1.18c-1.64,2-3.15-.5-4.71.84a11.24,11.24,0,0,0-.89,2.24c1.1-1.22,2.11-1.52,3-1,1.18.63,2.15.5,2.74-.26-.33,1.69-2.57,2.36-4,1.69a1.39,1.39,0,0,0-2,.46,8.66,8.66,0,0,0,0,2.49c.42-.8,1.43-1.1,3-.89s2.19,0,2.4-.59c0,1.22.13,1.73-1.22,2.23a2,2,0,0,1-2.23-.21c-.89-.67-1.52-.71-1.81-.21a6.34,6.34,0,0,0,3.58,4.64Z"/><path class="cls-2" d="M112,158.31a6.21,6.21,0,0,0,4-4,8.84,8.84,0,0,1,1.65-2.23,5.38,5.38,0,0,0,1.47-4.22,1.85,1.85,0,0,1,.21-.76,9.11,9.11,0,0,0-3.07,5.31,10.7,10.7,0,0,0-.38-2.65,4.7,4.7,0,0,1,1-2.4,2.21,2.21,0,0,0-.26-2.74,3.3,3.3,0,0,1-.59-1.26,8.8,8.8,0,0,0-.21,1.64c0,.84-.8,1.64-.46,3.12a8.41,8.41,0,0,0-1-1.77c-.59-1.35.34-2.91-1-3.71-.34-.21-.5-.46-.42-.76a2.37,2.37,0,0,0-.13,2.74,14.34,14.34,0,0,0-6.06-3.12,7.27,7.27,0,0,1,1.47,1.94,2.09,2.09,0,0,0,2.7.93c.59-.26,1.18.08,2,1,.21.21.42.46.63.71a2.38,2.38,0,0,0-2.4-.34,2.5,2.5,0,0,1-2.32,0,5.63,5.63,0,0,1,1.06,1.18c1.64,2,3.16-.5,4.71.84a11.24,11.24,0,0,1,.89,2.24c-1.1-1.22-2.11-1.52-3-1-1.18.63-2.15.5-2.74-.26.33,1.69,2.57,2.36,4,1.69a1.39,1.39,0,0,1,2,.46,8.66,8.66,0,0,1,0,2.49c-.42-.8-1.43-1.1-3-.89s-2.19,0-2.4-.59c0,1.22-.13,1.73,1.22,2.23a2,2,0,0,0,2.23-.21c.89-.67,1.52-.71,1.81-.21a6.63,6.63,0,0,1-3.62,4.64Z"/><path class="cls-2" d="M90.44,162.56a5.12,5.12,0,0,0-4.59.59,6.48,6.48,0,0,1-2.19.63,4.36,4.36,0,0,0-3,2,1.2,1.2,0,0,1-.55.38,7.42,7.42,0,0,0,4.68-1.94,7.93,7.93,0,0,0-1.06,1.94,4.18,4.18,0,0,1-1.81,1.09c-.76.21-1.18.89-1.22,1.94a2.53,2.53,0,0,1-.25,1.14,5.13,5.13,0,0,0,.92-1c.47-.55,1.35-.68,1.9-1.81a10.16,10.16,0,0,0-.25,1.64c-.3,1.18-1.65,1.73-1.18,2.95.12.33.08.54-.13.71,1.06-.46,1.39-1,1.43-1.72a12,12,0,0,0,2.45,5.09,6.15,6.15,0,0,1,0-2,1.71,1.71,0,0,0-1.31-1.94c-.5-.12-.76-.63-.84-1.64a5.1,5.1,0,0,1,0-.8,1.91,1.91,0,0,0,1.39,1.43,2,2,0,0,1,1.47,1.18,5.77,5.77,0,0,1-.12-1.3c-.09-2.15-2.32-1.23-2.7-2.91a6.72,6.72,0,0,1,.55-1.9c.12,1.35.63,2,1.47,2.15,1.1.17,1.64.76,1.69,1.52.63-1.27-.51-2.82-1.77-3.08a1.21,1.21,0,0,1-1.1-1.26A7.08,7.08,0,0,1,85.47,164c-.12.76.38,1.43,1.52,2.06s1.43,1.1,1.26,1.6c.59-.84.93-1.09.3-2.06a1.66,1.66,0,0,0-1.56-1c-.93,0-1.35-.3-1.31-.8a5.36,5.36,0,0,1,4.76-1.31Z"/><path class="cls-2" d="M105.1,162.56a5.13,5.13,0,0,1,4.6.59,6.41,6.41,0,0,0,2.19.63,4.36,4.36,0,0,1,3,2,1.15,1.15,0,0,0,.55.38,7.42,7.42,0,0,1-4.68-1.94,7.6,7.6,0,0,1,1,1.94,4.27,4.27,0,0,0,1.82,1.09,1.85,1.85,0,0,1,1.22,1.94,2.53,2.53,0,0,0,.25,1.14,5.47,5.47,0,0,1-.93-1c-.46-.55-1.34-.68-1.89-1.81a11.4,11.4,0,0,1,.25,1.64c.3,1.18,1.64,1.73,1.18,2.95a.54.54,0,0,0,.13.71c-1.06-.46-1.39-1-1.44-1.72a12,12,0,0,1-2.44,5.09,6.44,6.44,0,0,0,0-2,1.7,1.7,0,0,1,1.31-1.94c.5-.12.76-.63.84-1.64a5.1,5.1,0,0,0,0-.8,1.91,1.91,0,0,1-1.39,1.43,2,2,0,0,0-1.47,1.18,5.77,5.77,0,0,0,.12-1.3c.09-2.15,2.32-1.23,2.7-2.91a7.06,7.06,0,0,0-.55-1.9c-.12,1.35-.63,2-1.47,2.15-1.1.17-1.65.76-1.69,1.52-.63-1.27.51-2.82,1.77-3.08a1.21,1.21,0,0,0,1.1-1.26,6.84,6.84,0,0,0-1.23-1.64c.13.76-.37,1.43-1.51,2.06s-1.43,1.1-1.27,1.6c-.59-.84-.92-1.09-.29-2.06a1.65,1.65,0,0,1,1.56-1c.92,0,1.35-.3,1.3-.8a5.34,5.34,0,0,0-4.76-1.31Z"/><path class="cls-2" d="M23.46,133.54l-1.85-4.8h.67l1.27,3.49a3.3,3.3,0,0,1,.25.8c.09-.25.17-.5.25-.8l1.31-3.49H26l-1.89,4.8Z"/><path class="cls-2" d="M24.14,133.79h-.68a.21.21,0,0,1-.21-.17l-1.85-4.8a.19.19,0,0,1,0-.21c0-.08.13-.08.21-.08h.68a.22.22,0,0,1,.21.16l1.26,3.5a.14.14,0,0,0,0,.08s.05-.08.05-.08l1.3-3.5a.28.28,0,0,1,.21-.16H26a.31.31,0,0,1,.21.08.33.33,0,0,1,.05.21l-1.9,4.8c-.08.09-.17.17-.25.17Zm-.51-.46H24L25.66,129h-.13l-1.22,3.33c-.09.29-.17.54-.26.76a.26.26,0,0,1-.21.16c-.08,0-.21-.08-.21-.16a3.34,3.34,0,0,0-.25-.76L22.2,129H22l1.6,4.34Z"/><polygon class="cls-2" points="30.63 133.54 30.63 128.74 34.12 128.74 34.12 129.33 31.26 129.33 31.26 130.8 33.91 130.8 33.91 131.35 31.26 131.35 31.26 132.99 34.21 132.99 34.21 133.54 30.63 133.54 30.63 133.54"/><path class="cls-2" d="M34.21,133.79H30.63a.28.28,0,0,1-.26-.25v-4.8a.25.25,0,0,1,.26-.26h3.45a.27.27,0,0,1,.25.26v.59a.24.24,0,0,1-.25.25H31.47v1h2.4a.27.27,0,0,1,.25.25v.55a.24.24,0,0,1-.25.25h-2.4v1.18h2.69a.25.25,0,0,1,.26.26v.54s-.09.17-.21.17Zm-3.33-.46H34v-.09H31.3a.24.24,0,0,1-.25-.25v-1.64a.24.24,0,0,1,.25-.26h2.4V131H31.3a.27.27,0,0,1-.25-.25v-1.48a.24.24,0,0,1,.25-.25h2.61V129h-3v4.38Z"/><path class="cls-2" d="M39.13,133.54v-4.8h2.15a4.62,4.62,0,0,1,.85.08,1.11,1.11,0,0,1,.59.42,1.36,1.36,0,0,1,.25.8c0,.76-.46,1.18-1.35,1.31a2,2,0,0,1,.93.88l.84,1.31h-.8l-.63-1a5.06,5.06,0,0,0-.55-.76,1.25,1.25,0,0,0-.38-.3,1.63,1.63,0,0,0-.5-.08h-.76v2.15Zm.68-2.66h1.35c.8,0,1.18-.25,1.18-.8s-.34-.8-1-.8H39.81v1.6Z"/><path class="cls-2" d="M43.39,133.79h-.8a.23.23,0,0,1-.21-.13l-.63-1c-.21-.38-.43-.59-.51-.76s-.21-.21-.29-.21-.17,0-.42,0H40v1.9a.24.24,0,0,1-.25.25h-.64a.28.28,0,0,1-.25-.25v-4.8a.25.25,0,0,1,.25-.26h2.15a6,6,0,0,1,.93.09,1.38,1.38,0,0,1,.72.5,1.49,1.49,0,0,1,.29,1,1.44,1.44,0,0,1-1,1.43,4,4,0,0,1,.55.64l.84,1.3a.28.28,0,0,1,0,.25.23.23,0,0,1-.21.13Zm-.67-.46H43l-.59-.93a2.08,2.08,0,0,0-.8-.8h0l0,0c.13.17.34.42.59.8l.51.89Zm-3.33,0h.17v-1.9a.24.24,0,0,1,.25-.25h.76a2.09,2.09,0,0,1,.59.08,2,2,0,0,1,.33.21s0-.08,0-.16.09-.17.21-.22c1-.12,1.14-.67,1.14-1.05a1.23,1.23,0,0,0-.21-.67.91.91,0,0,0-.46-.34,4.15,4.15,0,0,0-.81-.08H39.43v4.38Zm1.77-2.24H39.81a.26.26,0,0,1-.25-.25v-1.6a.24.24,0,0,1,.25-.25h1.51c1.1,0,1.27.63,1.27,1s-.21,1.09-1.43,1.09ZM40,130.63h1.14c.92,0,.92-.42.92-.59s-.08-.55-.8-.55H40v1.14Z"/><path class="cls-2" d="M48,133.54v-4.8h1.65a3.23,3.23,0,0,1,1.18.16,1.75,1.75,0,0,1,.8.76,3.33,3.33,0,0,1-.17,3.2,2,2,0,0,1-1.73.68Zm.63-.55h1a1.84,1.84,0,0,0,.92-.17,1.18,1.18,0,0,0,.55-.59,2.71,2.71,0,0,0,.21-1.09,2.8,2.8,0,0,0-.21-1.1.88.88,0,0,0-.55-.55,2.81,2.81,0,0,0-.92-.12h-1V133Z"/><path class="cls-2" d="M49.75,133.79H48a.24.24,0,0,1-.25-.25v-4.8a.24.24,0,0,1,.25-.26h1.65a3.76,3.76,0,0,1,1.26.21,2,2,0,0,1,.93.85,2.94,2.94,0,0,1,.38,1.55,3.15,3.15,0,0,1-.55,1.9,2.25,2.25,0,0,1-1.94.8Zm-1.47-.46h1.51a1.81,1.81,0,0,0,1.52-.59,2.71,2.71,0,0,0,.46-1.6,2.58,2.58,0,0,0-.29-1.35,1.3,1.3,0,0,0-.68-.63,2.75,2.75,0,0,0-1.09-.17H48.28v4.34Zm1.43-.13h-1a.27.27,0,0,1-.26-.25v-3.67a.25.25,0,0,1,.26-.25h1a2.32,2.32,0,0,1,1,.17,1.1,1.1,0,0,1,.63.67,3.08,3.08,0,0,1,.21,1.18,3,3,0,0,1-.21,1.18,1.51,1.51,0,0,1-.63.72,1.7,1.7,0,0,1-1,.25Zm-.8-.46h.8a2.08,2.08,0,0,0,.84-.13.83.83,0,0,0,.42-.5,2.29,2.29,0,0,0,.17-1,2,2,0,0,0-.17-1,1.15,1.15,0,0,0-.42-.47,2.3,2.3,0,0,0-.84-.12H49v3.2Z"/><path class="cls-2" d="M56.41,133.54l1.85-4.8h.67l2,4.8H60.2l-.55-1.48h-2l-.55,1.48Zm1.39-2h1.64l-.51-1.35a10.44,10.44,0,0,1-.33-1,5.28,5.28,0,0,1-.26.93l-.54,1.43Z"/><path class="cls-2" d="M60.91,133.79H60.2a.21.21,0,0,1-.21-.17l-.51-1.3H57.8l-.47,1.3a.26.26,0,0,1-.21.17h-.67a.31.31,0,0,1-.21-.08.41.41,0,0,1,0-.21l1.85-4.81a.28.28,0,0,1,.21-.16h.67a.25.25,0,0,1,.22.12l2,4.8c0,.09,0,.17-.05.21a.21.21,0,0,1-.17.13Zm-.59-.46h.22L58.77,129h-.38l-1.69,4.34h.17l.46-1.31c0-.08.13-.17.21-.17h2a.22.22,0,0,1,.21.17l.54,1.31Zm-.92-1.52H57.75a.36.36,0,0,1-.21-.08.41.41,0,0,1,0-.21l.55-1.39c.08-.3.17-.59.25-.89a.21.21,0,0,1,.21-.17.31.31,0,0,1,.26.17,8,8,0,0,0,.33,1l.51,1.35a.19.19,0,0,1,0,.21.5.5,0,0,1-.17,0Zm-1.27-.46h1l-.38-1a.65.65,0,0,1-.08-.26.26.26,0,0,1-.09.17l-.42,1.1Z"/><polygon class="cls-2" points="65.46 133.54 65.46 128.74 66.1 128.74 68.62 132.53 68.62 128.74 69.21 128.74 69.21 133.54 68.58 133.54 66.05 129.79 66.05 133.54 65.46 133.54 65.46 133.54"/><path class="cls-2" d="M69.21,133.79h-.67a.31.31,0,0,1-.21-.08l-2.11-3.12v3a.24.24,0,0,1-.25.25h-.59a.26.26,0,0,1-.25-.25v-4.8a.24.24,0,0,1,.25-.25H66a.31.31,0,0,1,.21.08l2.11,3.12v-3a.24.24,0,0,1,.25-.26h.63a.28.28,0,0,1,.26.26v4.8a.28.28,0,0,1-.26.25Zm-.5-.46H69V129h-.12v3.54c0,.08-.09.21-.17.21a.21.21,0,0,1-.26-.09L66,129h-.29v4.34h.12v-3.54c0-.09.09-.21.17-.21a.2.2,0,0,1,.25.08l2.45,3.67Z"/><polygon class="cls-2" points="75.57 133.54 75.57 129.33 73.97 129.33 73.97 128.74 77.81 128.74 77.81 129.33 76.21 129.33 76.21 133.54 75.57 133.54 75.57 133.54"/><path class="cls-2" d="M76.21,133.79h-.64a.28.28,0,0,1-.25-.25v-4H74a.28.28,0,0,1-.25-.26v-.59a.24.24,0,0,1,.25-.25h3.79a.28.28,0,0,1,.26.25v.59a.25.25,0,0,1-.26.26H76.42v4a.24.24,0,0,1-.21.25Zm-.43-.46H76v-4a.25.25,0,0,1,.26-.26h1.34V129H74.23v.08h1.34a.25.25,0,0,1,.26.26v4Z"/><path class="cls-2" d="M91.67,133.54v-4.8h2.14a4.62,4.62,0,0,1,.85.08,1.11,1.11,0,0,1,.59.42,1.36,1.36,0,0,1,.25.8c0,.76-.46,1.18-1.35,1.31a2,2,0,0,1,.93.88l.84,1.31h-.8l-.63-1a5.06,5.06,0,0,0-.55-.76,1.25,1.25,0,0,0-.38-.3,1.58,1.58,0,0,0-.5-.08H92.3v2.15Zm.63-2.66h1.35c.8,0,1.18-.25,1.18-.8s-.34-.8-1-.8H92.3v1.6Z"/><path class="cls-2" d="M95.92,133.79h-.8a.23.23,0,0,1-.21-.13l-.63-1c-.21-.38-.42-.59-.51-.76a.48.48,0,0,0-.29-.21s-.17,0-.42,0h-.51v1.9a.24.24,0,0,1-.25.25h-.63a.28.28,0,0,1-.26-.25v-4.8a.25.25,0,0,1,.26-.26h2.14a6,6,0,0,1,.93.09,1.38,1.38,0,0,1,.72.5,1.49,1.49,0,0,1,.29,1,1.39,1.39,0,0,1-1,1.43,4,4,0,0,1,.55.64l.84,1.3a.28.28,0,0,1,0,.25.22.22,0,0,1-.21.13Zm-.67-.46h.25l-.59-.93a2.08,2.08,0,0,0-.8-.8h0l0,0c.13.17.34.42.59.8l.51.89Zm-3.33,0h.17v-1.9a.24.24,0,0,1,.25-.25h.76a2.09,2.09,0,0,1,.59.08,2.62,2.62,0,0,1,.34.21s0-.08,0-.16.09-.17.21-.22c1-.12,1.14-.67,1.14-1.05a1.23,1.23,0,0,0-.21-.67.87.87,0,0,0-.46-.34,4.13,4.13,0,0,0-.8-.08H92v4.38Zm1.77-2.24H92.34a.26.26,0,0,1-.25-.25v-1.6a.24.24,0,0,1,.25-.25h1.52c1.09,0,1.26.63,1.26,1s-.21,1.09-1.43,1.09Zm-1.14-.46h1.14c1,0,1-.42,1-.59s-.09-.55-.8-.55H92.55v1.14Z"/><polygon class="cls-2" points="100.56 133.54 100.56 128.74 104.05 128.74 104.05 129.33 101.19 129.33 101.19 130.8 103.88 130.8 103.88 131.35 101.19 131.35 101.19 132.99 104.14 132.99 104.14 133.54 100.56 133.54 100.56 133.54"/><path class="cls-2" d="M104.13,133.79h-3.57a.28.28,0,0,1-.26-.25v-4.8a.28.28,0,0,1,.26-.26H104a.28.28,0,0,1,.25.26v.59a.28.28,0,0,1-.25.25H101.4v1h2.44a.27.27,0,0,1,.25.25v.55a.24.24,0,0,1-.25.25H101.4v1.18h2.69a.25.25,0,0,1,.26.26v.54s0,.17-.22.17Zm-3.32-.46h3.11v-.09h-2.69A.24.24,0,0,1,101,133v-1.64a.27.27,0,0,1,.25-.26h2.44V131h-2.44a.27.27,0,0,1-.25-.25v-1.48a.27.27,0,0,1,.25-.25h2.61V129h-3v4.38Z"/><path class="cls-2" d="M108.85,132l.59,0a1.1,1.1,0,0,0,.47.84,1.73,1.73,0,0,0,1,.26,1.22,1.22,0,0,0,.88-.26.7.7,0,0,0,.3-.59.51.51,0,0,0-.3-.5,3.52,3.52,0,0,0-1.18-.38,2.39,2.39,0,0,1-1.22-.55,1.16,1.16,0,0,1-.34-.8,1.08,1.08,0,0,1,.51-1,2.13,2.13,0,0,1,1.18-.34,1.89,1.89,0,0,1,1.35.42,1.39,1.39,0,0,1,.46,1l-.59,0c-.09-.63-.46-.93-1.18-.93s-1.1.25-1.1.72a.62.62,0,0,0,.21.46,3.16,3.16,0,0,0,.93.34,7,7,0,0,1,1,.29,1.24,1.24,0,0,1,.59.47,1.16,1.16,0,0,1,.26.75,1.23,1.23,0,0,1-.51,1.06,2.07,2.07,0,0,1-1.26.38,2.23,2.23,0,0,1-1.52-.47,2,2,0,0,1-.55-1.22Z"/><path class="cls-2" d="M110.92,133.88a2.44,2.44,0,0,1-1.69-.51,1.75,1.75,0,0,1-.59-1.35.27.27,0,0,1,.21-.25l.59,0a.24.24,0,0,1,.26.21.87.87,0,0,0,.38.67,1.3,1.3,0,0,0,.84.21,1.64,1.64,0,0,0,.76-.17.59.59,0,0,0,.21-.38.35.35,0,0,0-.17-.33,3.34,3.34,0,0,0-1.1-.38,2.61,2.61,0,0,1-1.35-.63,1.33,1.33,0,0,1-.38-.93,1.36,1.36,0,0,1,.6-1.18,2.3,2.3,0,0,1,1.34-.38,2.24,2.24,0,0,1,1.48.46,1.57,1.57,0,0,1,.55,1.18.25.25,0,0,1-.21.26l-.59,0a.25.25,0,0,1-.26-.21c0-.34-.17-.72-.92-.72s-.89.34-.89.51a.25.25,0,0,0,.13.25,3.06,3.06,0,0,0,.84.3,7,7,0,0,1,1.05.29,2.09,2.09,0,0,1,.72.51,1.3,1.3,0,0,1,.29.88,1.48,1.48,0,0,1-.63,1.26,2.9,2.9,0,0,1-1.47.43Zm-1.81-1.65a1.34,1.34,0,0,0,.42.76,2.07,2.07,0,0,0,1.35.42,1.85,1.85,0,0,0,1.09-.33,1,1,0,0,0,.42-.89.73.73,0,0,0-.21-.59,1.13,1.13,0,0,0-.5-.38l-1-.29a3.92,3.92,0,0,1-1-.34.8.8,0,0,1-.33-.63c0-.38.17-1,1.35-1,.92,0,1.26.46,1.34.93h.17a1,1,0,0,0-.38-.64,1.79,1.79,0,0,0-1.18-.33,1.71,1.71,0,0,0-1.05.29.88.88,0,0,0-.38.8.9.9,0,0,0,.25.63,2.06,2.06,0,0,0,1.14.47,5.88,5.88,0,0,1,1.26.42.81.81,0,0,1,.38.71.93.93,0,0,1-.38.76,1.57,1.57,0,0,1-1,.3,1.84,1.84,0,0,1-1.09-.3,1.18,1.18,0,0,1-.51-.8Z"/><polygon class="cls-2" points="118.84 133.54 118.84 129.33 117.24 129.33 117.24 128.74 121.03 128.74 121.03 129.33 119.47 129.33 119.47 133.54 118.84 133.54 118.84 133.54"/><path class="cls-2" d="M119.47,133.79h-.63a.27.27,0,0,1-.25-.25v-4h-1.35a.28.28,0,0,1-.26-.26v-.59a.25.25,0,0,1,.26-.25H121a.28.28,0,0,1,.25.25v.59a.24.24,0,0,1-.25.26h-1.35v4a.23.23,0,0,1-.21.25Zm-.42-.46h.17v-4a.24.24,0,0,1,.25-.26h1.35V129h-3.33v.08h1.35a.25.25,0,0,1,.25.26v4Z"/><path class="cls-2" d="M125.2,133.54l1.85-4.8h.68l2,4.8H129l-.55-1.48h-2l-.55,1.48Zm1.39-2h1.64l-.5-1.35a8.55,8.55,0,0,1-.34-1l-.25.93-.55,1.43Z"/><path class="cls-2" d="M129.71,133.79H129a.21.21,0,0,1-.21-.17l-.51-1.3h-1.68l-.46,1.3a.29.29,0,0,1-.22.17h-.67a.33.33,0,0,1-.21-.08.41.41,0,0,1,0-.21l1.85-4.81a.28.28,0,0,1,.21-.16h.68a.25.25,0,0,1,.21.12l2,4.8c0,.09,0,.17,0,.21s-.08.13-.16.13Zm-.55-.46h.21L127.6,129h-.38l-1.64,4.34h.17l.46-1.31c0-.08.12-.17.21-.17h2a.21.21,0,0,1,.21.17l.51,1.31Zm-.93-1.52h-1.64a.31.31,0,0,1-.21-.08.34.34,0,0,1,0-.21l.55-1.39.26-.89a.21.21,0,0,1,.21-.17.36.36,0,0,1,.25.17,8.3,8.3,0,0,0,.34,1l.5,1.35a.19.19,0,0,1,0,.21.5.5,0,0,1-.17,0Zm-1.3-.46h1l-.38-1a.65.65,0,0,1-.08-.26s0,.13,0,.17l-.46,1.1Z"/><path class="cls-2" d="M137.41,128.74h.64v2.78a3.82,3.82,0,0,1-.13,1,1.62,1.62,0,0,1-.55.76,2,2,0,0,1-1.18.29,1.9,1.9,0,0,1-1.47-.5,2.41,2.41,0,0,1-.46-1.6v-2.78h.63v2.78a4.5,4.5,0,0,0,.08.8.89.89,0,0,0,.38.54,1.42,1.42,0,0,0,.76.22,1.39,1.39,0,0,0,1-.34,1.79,1.79,0,0,0,.29-1.22v-2.78Z"/><path class="cls-2" d="M136.19,133.88a2.13,2.13,0,0,1-1.64-.59,2.6,2.6,0,0,1-.51-1.77v-2.78a.28.28,0,0,1,.26-.26h.63a.28.28,0,0,1,.25.26v2.78a3.21,3.21,0,0,0,.09.75.58.58,0,0,0,.25.38.93.93,0,0,0,.63.17,1.17,1.17,0,0,0,.84-.25c.13-.13.26-.38.26-1v-2.78a.27.27,0,0,1,.25-.26h.63a.27.27,0,0,1,.25.26v2.78a4.84,4.84,0,0,1-.12,1.13,1.44,1.44,0,0,1-.68.89,3.07,3.07,0,0,1-1.39.34ZM134.51,129v2.53a2.23,2.23,0,0,0,.38,1.47,1.55,1.55,0,0,0,1.26.42,1.83,1.83,0,0,0,1-.25,1,1,0,0,0,.47-.63,3.94,3.94,0,0,0,.12-1V129h-.16v2.53a2,2,0,0,1-.38,1.39,1.62,1.62,0,0,1-1.18.38,1.6,1.6,0,0,1-.93-.26,1.1,1.1,0,0,1-.46-.67,4.41,4.41,0,0,1-.09-.84V129Z"/><path class="cls-2" d="M143.19,133.54v-4.8h2.14a4.62,4.62,0,0,1,.85.08,1.11,1.11,0,0,1,.59.42,1.36,1.36,0,0,1,.25.8c0,.76-.46,1.18-1.35,1.31a2,2,0,0,1,.93.88l.84,1.31h-.8l-.63-1a5.06,5.06,0,0,0-.55-.76,1.25,1.25,0,0,0-.38-.3,1.58,1.58,0,0,0-.5-.08h-.72v2.15Zm.63-2.66h1.35c.8,0,1.17-.25,1.17-.8s-.33-.8-1-.8h-1.51v1.6Z"/><path class="cls-2" d="M147.4,133.79h-.8a.22.22,0,0,1-.21-.13l-.63-1c-.21-.38-.43-.59-.51-.76s-.21-.21-.29-.21-.17,0-.43,0H144v1.9a.28.28,0,0,1-.25.25h-.64a.28.28,0,0,1-.25-.25v-4.8a.25.25,0,0,1,.25-.26h2.15a6,6,0,0,1,.93.09,1.39,1.39,0,0,1,.71.5,1.58,1.58,0,0,1-.71,2.4,4,4,0,0,1,.55.64l.84,1.3a.28.28,0,0,1,0,.25.23.23,0,0,1-.21.13Zm-.68-.46H147l-.59-.93a2.15,2.15,0,0,0-.8-.8h0l0,0c.13.17.34.42.59.8l.5.89Zm-3.32,0h.16v-1.9a.28.28,0,0,1,.26-.25h.71a2,2,0,0,1,.59.08,2.09,2.09,0,0,1,.34.21.15.15,0,0,1,0-.12c0-.09.08-.17.21-.21,1-.13,1.14-.68,1.14-1.06a1.32,1.32,0,0,0-.21-.67.89.89,0,0,0-.47-.34,4,4,0,0,0-.8-.08H143.4v4.34Zm1.77-2.24h-1.35a.27.27,0,0,1-.26-.25v-1.6a.27.27,0,0,1,.26-.25h1.51c1.1,0,1.27.63,1.27,1s-.21,1.09-1.43,1.09Zm-1.14-.46h1.14c1,0,1-.42,1-.59s-.08-.55-.8-.55H144v1.14Z"/><path class="cls-2" d="M151.53,133.54l1.85-4.8h.68l2,4.8h-.75l-.55-1.48h-2l-.55,1.48Zm1.39-2h1.64l-.5-1.35a8.55,8.55,0,0,1-.34-1,6.31,6.31,0,0,1-.26.93l-.54,1.43Z"/><path class="cls-2" d="M156,133.79h-.75a.21.21,0,0,1-.21-.17l-.51-1.3h-1.69l-.46,1.3a.26.26,0,0,1-.21.17h-.67a.31.31,0,0,1-.21-.08.34.34,0,0,1,0-.21l1.86-4.81a.26.26,0,0,1,.21-.16H154a.22.22,0,0,1,.21.12l2,4.8c0,.09,0,.17,0,.21a.13.13,0,0,1-.13.13Zm-.59-.46h.21L153.89,129h-.38l-1.69,4.34H152l.46-1.31c.05-.08.13-.17.21-.17h2a.21.21,0,0,1,.21.17l.54,1.31Zm-.92-1.52h-1.65a.36.36,0,0,1-.21-.08.41.41,0,0,1,0-.21l.55-1.39a3.3,3.3,0,0,0,.25-.89.21.21,0,0,1,.21-.17h0c.09,0,.21.09.21.17.09.25.17.59.34,1l.51,1.35a.18.18,0,0,1-.05.21c.05,0,0,0-.12,0Zm-1.27-.46h1l-.38-1a.65.65,0,0,1-.08-.26s0,.13,0,.17l-.47,1.1Z"/><polygon class="cls-2" points="160.59 133.54 160.59 128.74 161.22 128.74 163.74 132.53 163.74 128.74 164.33 128.74 164.33 133.54 163.7 133.54 161.17 129.79 161.17 133.54 160.59 133.54 160.59 133.54"/><path class="cls-2" d="M164.33,133.79h-.63a.33.33,0,0,1-.21-.08l-2.11-3.12v3a.26.26,0,0,1-.25.25h-.59a.26.26,0,0,1-.25-.25v-4.8a.24.24,0,0,1,.25-.25h.63a.31.31,0,0,1,.21.08l2.11,3.12v-3a.28.28,0,0,1,.25-.26h.59a.28.28,0,0,1,.26.26v4.8a.28.28,0,0,1-.26.25Zm-.5-.46h.29V129H164v3.54c0,.08-.09.21-.17.21a.2.2,0,0,1-.25-.09L161.13,129h-.29v4.34H161v-3.54c0-.09.09-.21.17-.21a.2.2,0,0,1,.25.08l2.45,3.67Z"/><polygon class="cls-2" points="170.69 133.54 170.69 129.33 169.09 129.33 169.09 128.74 172.93 128.74 172.93 129.33 171.32 129.33 171.32 133.54 170.69 133.54 170.69 133.54"/><path class="cls-2" d="M171.33,133.79h-.64a.28.28,0,0,1-.25-.25v-4h-1.35a.28.28,0,0,1-.25-.26v-.59a.25.25,0,0,1,.25-.25h3.8a.28.28,0,0,1,.25.25v.59a.25.25,0,0,1-.25.26h-1.35v4a.24.24,0,0,1-.21.25Zm-.42-.46h.16v-4a.25.25,0,0,1,.26-.26h1.34V129h-3.32v.08h1.34a.25.25,0,0,1,.26.26v4Z"/><path class="cls-3" d="M97.77,195.55a97.78,97.78,0,1,1,97.78-97.78,97.88,97.88,0,0,1-97.78,97.78Zm0-191.93a94.13,94.13,0,1,0,94.16,94.11A94.24,94.24,0,0,0,97.77,3.62Z"/><path class="cls-2" d="M28.44,113.15,27.63,117c-.16.89-.25,1.65.13,1.94a12.2,12.2,0,0,0,2.74,1H25.82l2.62-6.82Z"/><path class="cls-2" d="M142.76,113.15,142,117c-.16.89-.25,1.65.13,1.94a12.2,12.2,0,0,0,2.74,1h-4.68l2.61-6.82Z"/><path class="cls-2" d="M30.5,120.23H25.82a.37.37,0,0,1-.21-.09.47.47,0,0,1,0-.21l2.61-6.87a.22.22,0,0,1,.3-.12.24.24,0,0,1,.17.29l-.81,3.84c-.08.33-.29,1.43.05,1.68a4.42,4.42,0,0,0,1.39.59l1.26.42a.27.27,0,0,1,.17.26c0,.12-.08.21-.21.21Zm-4.3-.47h2.87a4.1,4.1,0,0,1-1.39-.63c-.51-.42-.38-1.3-.21-2.19l.16-.88-1.43,3.7Z"/><path class="cls-2" d="M23.93,120H21.19c-.13-.38,0-.59.46-.64a5.52,5.52,0,0,0,2.11-2.65l14.66-32.1L54.34,120H48.7l-.09-.5,3.21-.3-6.7-14.57H30.33A158,158,0,0,0,23.93,120Zm20.6-16.52L38,87.41l-7.2,16.09Z"/><path class="cls-2" d="M54.34,120.23H48.7a.29.29,0,0,1-.26-.21l-.08-.51c0-.08,0-.13,0-.17a.23.23,0,0,1,.17-.08l2.86-.26-6.52-14.15H31.43a161.47,161.47,0,0,0-6.28,15.25c0,.08-.13.17-.21.17H21.23c-.08,0-.21-.09-.21-.17a.68.68,0,0,1,0-.63.83.83,0,0,1,.55-.3l.13-.08c.8-.59,1-.8,1.85-2.44l14.66-32.1a.23.23,0,0,1,.42,0L54.6,119.89a.2.2,0,0,1,0,.21.4.4,0,0,1-.26.13Zm-5.43-.47H54L38.42,85.22,24,116.86a5.87,5.87,0,0,1-2,2.61l-.17.12a.14.14,0,0,1-.13,0,.3.3,0,0,0-.25.08v0H23.8C26,113.87,28,109,30.12,104.51a.24.24,0,0,1,.21-.12H45.12a.24.24,0,0,1,.21.12L52,119.09a.2.2,0,0,1,0,.21.27.27,0,0,1-.17.13l-3,.33Zm-4.38-16H30.88a.23.23,0,0,1-.21-.13c0-.09,0-.17,0-.21l7-16a.24.24,0,0,1,.21-.12h0a.21.21,0,0,1,.21.16l6.7,16c0,.08,0,.17,0,.21s-.13.09-.21.09Zm-12.35-.51h12L38.46,89.47l-6.28,13.78Z"/><path class="cls-2" d="M59.23,120H55.65L39,83.37l1-2.19,16.93,37.28c.17.33.38.46,1.27.8.67.17.88.29,1,.76Z"/><path class="cls-2" d="M59.23,120.23H55.65a.23.23,0,0,1-.21-.13L38.76,83.45a.16.16,0,0,1,0-.21l1-2.19a.22.22,0,0,1,.21-.13.24.24,0,0,1,.21.13l16.93,37.28c.09.21.21.34,1.14.67.67.22,1,.38,1.18.93a.19.19,0,0,1,0,.21s-.09.09-.17.09Zm-3.41-.47h3a2,2,0,0,0-.68-.33c-.88-.3-1.18-.51-1.39-.93L40,81.68l-.72,1.6,16.52,36.48Z"/><path class="cls-2" d="M144.91,120.23h-4.67a.32.32,0,0,1-.21-.09.39.39,0,0,1-.05-.21l2.62-6.87a.21.21,0,0,1,.29-.12.24.24,0,0,1,.17.29l-.8,3.84c-.09.33-.3,1.43,0,1.68a4.52,4.52,0,0,0,1.39.59l1.27.42a.27.27,0,0,1,.16.26.2.2,0,0,1-.21.21Zm-4.34-.47h2.87a4.1,4.1,0,0,1-1.39-.63c-.51-.42-.38-1.3-.21-2.19l.17-.88-1.44,3.7Z"/><path class="cls-2" d="M138.34,120H135.6c-.12-.38,0-.59.47-.64a5.51,5.51,0,0,0,2.1-2.65l14.66-32.1L168.76,120h-5.65l-.08-.5,3.2-.3-6.74-14.57H144.7A160.21,160.21,0,0,0,138.34,120ZM158.9,103.5l-6.49-16.09-7.2,16.09Z"/><path class="cls-2" d="M168.76,120.23h-5.65a.27.27,0,0,1-.25-.21l-.09-.51c0-.08,0-.13,0-.17a.21.21,0,0,1,.16-.08l2.87-.26-6.53-14.15H145.8a161.47,161.47,0,0,0-6.28,15.25c0,.08-.13.17-.21.17H135.6c-.08,0-.21-.09-.21-.17a.68.68,0,0,1,0-.63.83.83,0,0,1,.55-.3l.13-.08c.8-.59,1-.8,1.85-2.44l14.66-32.1a.23.23,0,0,1,.21-.13.22.22,0,0,1,.21.13L169,119.89a.2.2,0,0,1,0,.21c-.09.08-.13.13-.21.13Zm-5.48-.47h5.06L152.79,85.22l-14.45,31.64a5.87,5.87,0,0,1-2,2.61l-.17.12a.13.13,0,0,1-.12,0,.32.32,0,0,0-.26.08v0h2.36c2.15-5.89,4.17-10.74,6.32-15.25a.24.24,0,0,1,.21-.12h14.79a.24.24,0,0,1,.21.12l6.7,14.58a.2.2,0,0,1,0,.21.25.25,0,0,1-.17.13l-2.95.33Zm-4.38-16H145.25a.24.24,0,0,1-.21-.13c0-.09,0-.17,0-.21l7-16a.25.25,0,0,1,.21-.12h0a.21.21,0,0,1,.21.16l6.7,16c0,.08,0,.17,0,.21a.34.34,0,0,1-.21.09Zm-12.3-.51h12l-6.15-13.73-5.81,13.73Z"/><path class="cls-2" d="M173.64,120h-3.58L153.38,83.37l1-2.19,16.94,37.28c.16.33.38.46,1.26.8.67.17.88.29,1,.76Z"/><path class="cls-2" d="M173.64,120.23h-3.58a.24.24,0,0,1-.21-.13L153.17,83.45a.2.2,0,0,1,0-.21l1-2.19a.23.23,0,0,1,.21-.13.24.24,0,0,1,.21.13l16.94,37.28c.08.21.21.34,1.13.67.68.22,1,.38,1.18.93a.17.17,0,0,1,0,.21.22.22,0,0,1-.17.09Zm-3.41-.47h3a1.86,1.86,0,0,0-.67-.33c-.89-.3-1.18-.51-1.39-.93L154.43,81.68l-.71,1.6,16.51,36.48Z"/><path class="cls-2" d="M65.88,81.6a3.37,3.37,0,0,0-.42,1.68c0,.68,0,1.31,0,1.73v32.48c0,.63-.84-1.18-2-3l-.17-30c0-1.94-.46-2.19-3.62-2.44l0-.46,6.31,0Z"/><path class="cls-2" d="M78.61,120.73c-2.07.38-7.46.59-11.42-1.39-2.49-1.43-4.17-2.9-4.13-7.24L63,84.46c0-1.68-.21-1.94-3.41-2.19a.22.22,0,0,1-.21-.21l0-.46c0-.09,0-.13.09-.17a.32.32,0,0,1,.17-.09h6.36a.24.24,0,0,1,.21.13.28.28,0,0,1,0,.25,4.23,4.23,0,0,0-.42,1.6c0,.85,0,1.48,0,1.73l-.05,26.88c.34,5.39,5.52,7.79,11.46,7.45,6.07-.75,7.33-2.57,8-2.57.3,0-2.31,2.83-6.44,3.92Zm-13.48-3.41V85.05c0-.25,0-.88,0-1.73a4.55,4.55,0,0,1,.29-1.43H60c2.78.26,3.41.59,3.41,2.66l.08,29.19,1.65,3.58Z"/><path class="cls-2" d="M66.73,112.56c0-11.88-.26-16.35-.21-28.22a4,4,0,0,1,1-2.74h2.83c-1.43.63-1.64,1.05-1.94,2.57v28.47l-1.64-.08Z"/><path class="cls-2" d="M68,115.85a6.58,6.58,0,0,1-1.64-4.68V84.34a4.06,4.06,0,0,1,1.05-2.91.35.35,0,0,1,.17-.09h2.82c.13,0,.21.09.26.22a.21.21,0,0,1-.13.25c-1.39.59-1.52,1-1.81,2.36v25.36l0,1.68a7.58,7.58,0,0,0,.55,2.19,7.29,7.29,0,0,0,5.22,4.76c.93.34-3,1.1-6.53-2.31Zm.25-7.33V84.12c.26-1.26.47-1.81,1.18-2.31H67.7a3.86,3.86,0,0,0-.85,2.48l1.39,24.23Z"/><path class="cls-2" d="M91.54,116.86v2.23c.21,0,1.09.21,2.11.38a8,8,0,0,1,2.4.59H89.64c0-11.88,0-23.8,0-35.68a4.09,4.09,0,0,1,1-2.74h2.83c-1.44.63-1.65,1-1.94,2.57,0,19.71,0,14.24,0,32.65Z"/><path class="cls-2" d="M96,120.23H89.6a.28.28,0,0,1-.25-.26c0-10.27,0-21.27,0-35.68a4.1,4.1,0,0,1,1.05-2.9.29.29,0,0,1,.17-.09h2.82a.29.29,0,0,1,.26.21.22.22,0,0,1-.13.26c-1.39.59-1.52,1-1.81,2.35v34.67c.38.09,1.09.21,1.89.34a7.63,7.63,0,0,1,2.49.63.33.33,0,0,1,.13.26.19.19,0,0,1-.21.21Zm-6.11-.47h4.38a3.43,3.43,0,0,0-.68-.08c-1-.17-1.93-.34-2.1-.38a.23.23,0,0,1-.17-.25V84.12c.25-1.26.46-1.81,1.18-2.31H90.78a3.8,3.8,0,0,0-.84,2.48c-.09,14.33-.09,25.28,0,35.47Z"/><path class="cls-2" d="M103.63,81.6a3.26,3.26,0,0,0-.42,1.68c0,.68,0,1.31,0,1.73v33.41a1.52,1.52,0,0,1-.59,1.26c-.26.25-.51.25-1,.25H98.79a4.38,4.38,0,0,0,1.68-.88,1.84,1.84,0,0,0,.59-1.48L101,84.42c0-1.94-.47-2.19-3.63-2.44l0-.47,6.32.09Zm10.11,20.22a39,39,0,0,1,4.42,6.74c1.77,3.2,3.25,5.6,4.38,7.24a14.68,14.68,0,0,0,3.54,3.88,6.84,6.84,0,0,1-4.71-2.78,48.92,48.92,0,0,1-4.6-7.58,28.72,28.72,0,0,0-4.5-6.74c-2.24-.43-3.88-1.44-6.15-2.78v19.29c.21,0,1.09.21,2.1.38a7.86,7.86,0,0,1,2.4.59h-6.4c0-11.88,0-23.8,0-35.68a4,4,0,0,1,1-2.74h8.59c3,0,5.44.08,7.5.88a9.6,9.6,0,0,1,5,4.55c2.82,5.4.25,13.32-5.6,14.62,3.58-2.27,4.84-5.73,4.84-9.52a11.12,11.12,0,0,0-.67-3.92,8.69,8.69,0,0,0-3-3.91,8.2,8.2,0,0,0-5.31-1.61c-3.41-.08-6.49,0-9.77,0a1.66,1.66,0,0,0-.72,1.52V98.78a14.67,14.67,0,0,0,7.58,3.08l.13,0Zm19,17.35a2.68,2.68,0,0,1-.88.85,5.35,5.35,0,0,1-1.1.21c-.5,0-.84.08-1.05.08a4.88,4.88,0,0,1-3.62-1.43c-4.89-4.72-6.87-11.88-11.51-17H115a4.17,4.17,0,0,0,.68,0c7.24-.55,8.13-8.85,6.06-14.41A8.63,8.63,0,0,0,119.43,84a5.94,5.94,0,0,1,3.37,2.31c2.57,3.25,2.36,8.39.42,11.8a9.29,9.29,0,0,1-3.62,3.58,10.21,10.21,0,0,1-1.69.72,3.64,3.64,0,0,1-.63.16,35.2,35.2,0,0,1,3.12,4.68c1.09,1.94,2.27,4,3.45,6a39.62,39.62,0,0,0,3,4.51,6.14,6.14,0,0,0,1.94,1.73,5.11,5.11,0,0,0,1.6.25,7.24,7.24,0,0,0,2.4-.51Z"/><path class="cls-2" d="M129.79,120.56a5.2,5.2,0,0,1-3.79-1.51c-2.61-2.53-4.42-5.77-6.19-8.93a41.26,41.26,0,0,0-5.35-8.09.19.19,0,0,1,0-.25.24.24,0,0,1,.21-.13H115a3.33,3.33,0,0,0,.63,0,6.63,6.63,0,0,0,5.35-3c2-3.11,1.73-7.79.55-11a8.53,8.53,0,0,0-2.19-3.37.28.28,0,0,1,0-.3.3.3,0,0,1,.25-.12,6.24,6.24,0,0,1,3.5,2.4c2.78,3.45,2.27,8.8.42,12a9.14,9.14,0,0,1-3.71,3.66,8,8,0,0,1-1.73.72c-.08,0-.21,0-.29.08a37.6,37.6,0,0,1,2.91,4.42c1.09,1.94,2.27,4,3.45,6a35.06,35.06,0,0,0,3,4.47,6.13,6.13,0,0,0,1.85,1.64,5.73,5.73,0,0,0,3.75-.17.28.28,0,0,1,.3.09.21.21,0,0,1,0,.29,2.79,2.79,0,0,1-1,.93,4.2,4.2,0,0,1-1.14.21c-.42,0-.8,0-1,0Zm-14.62-18.49a46.57,46.57,0,0,1,5.06,7.79c1.72,3.12,3.54,6.36,6.1,8.85a4.74,4.74,0,0,0,3.46,1.39c.21,0,.63,0,1-.08a3.77,3.77,0,0,0,1-.21.42.42,0,0,0,.21-.13,6,6,0,0,1-3.24-.09,6.76,6.76,0,0,1-2.06-1.81,31.05,31.05,0,0,1-3-4.5c-1.18-2-2.31-4-3.45-6a33.55,33.55,0,0,0-3.12-4.67c0-.09-.08-.17,0-.21a.31.31,0,0,1,.17-.17c.21,0,.42-.13.63-.17a10,10,0,0,0,1.64-.67,8.83,8.83,0,0,0,3.54-3.5c1.77-3.12,2.23-8.21-.38-11.5a6.33,6.33,0,0,0-2.31-1.9A9.2,9.2,0,0,1,122,87.33c1.22,3.37,1.51,8.21-.59,11.45a7.15,7.15,0,0,1-5.73,3.25c-.21,0-.38,0-.55,0Zm-4.55,18.16h-6.4A.27.27,0,0,1,104,120c0-10.32,0-21.65,0-35.68a4.06,4.06,0,0,1,1-2.9.29.29,0,0,1,.17-.09h8.59a22.53,22.53,0,0,1,7.59.89,9.76,9.76,0,0,1,5.09,4.67,11.45,11.45,0,0,1,.13,10,8.51,8.51,0,0,1-5.86,5c-.12,0-.21,0-.29-.13a.24.24,0,0,1,.08-.29c3.12-2,4.72-5.14,4.76-9.31a10.9,10.9,0,0,0-.67-3.83,8.81,8.81,0,0,0-2.91-3.8A7.9,7.9,0,0,0,116.56,83c-2.06,0-4,0-6,0h-3.71a1.41,1.41,0,0,0-.54,1.31V98.66a14,14,0,0,0,7.33,3h.08a.23.23,0,0,1,.17.08,38.77,38.77,0,0,1,4.46,6.78c1.82,3.25,3.25,5.61,4.34,7.25l.3.38a13.69,13.69,0,0,0,3.2,3.41.29.29,0,0,1,.08.3.22.22,0,0,1-.25.12,7.1,7.1,0,0,1-4.84-2.86,48.69,48.69,0,0,1-4.64-7.63,29.15,29.15,0,0,0-4.38-6.61,17.92,17.92,0,0,1-5.77-2.57h0v18.66c.38.08,1.09.21,1.89.34a7.38,7.38,0,0,1,2.49.63.31.31,0,0,1,.13.25.4.4,0,0,1-.26.09Zm-6.15-.47h4.38a3.42,3.42,0,0,0-.67-.08c-1.05-.17-1.94-.34-2.11-.38a.24.24,0,0,1-.17-.25V99.75a.26.26,0,0,1,.13-.21.28.28,0,0,1,.25,0l.38.21a18.06,18.06,0,0,0,5.69,2.53s.08,0,.13.09a30.27,30.27,0,0,1,4.55,6.78,50,50,0,0,0,4.59,7.54,6.19,6.19,0,0,0,3.58,2.48,12.8,12.8,0,0,1-2.49-2.86l-.29-.38c-1.14-1.64-2.57-4-4.38-7.29A40.3,40.3,0,0,0,113.7,102,15.12,15.12,0,0,1,106,98.91c-.08,0-.08-.13-.08-.21V84.12a2,2,0,0,1,.8-1.72.15.15,0,0,1,.12,0h3.8c1.93,0,3.91,0,6,0a8.56,8.56,0,0,1,5.43,1.68,9.28,9.28,0,0,1,3.08,4,10.85,10.85,0,0,1,.71,4,11,11,0,0,1-3.7,8.8,8.52,8.52,0,0,0,4.08-4.29,10.86,10.86,0,0,0-.08-9.48,9.3,9.3,0,0,0-4.85-4.43c-2.1-.8-4.72-.84-7.41-.84H105.4a3.83,3.83,0,0,0-.84,2.49c-.09,13.86-.13,25.15-.09,35.38Zm-2.9.47H98.74a.27.27,0,0,1-.25-.21c0-.13,0-.21.17-.26l.21-.08a4.58,4.58,0,0,0,1.43-.76,1.5,1.5,0,0,0,.51-1.31l-.09-33.15c0-1.68-.21-1.94-3.41-2.19a.22.22,0,0,1-.21-.21l0-.46c0-.09,0-.13.08-.17a.35.35,0,0,1,.17-.09h6.36a.23.23,0,0,1,.21.13.2.2,0,0,1,0,.21,4.33,4.33,0,0,0-.42,1.6c0,.84,0,1.48,0,1.73v33.4a1.9,1.9,0,0,1-.68,1.48,1.64,1.64,0,0,1-1.17.34Zm-1.61-.47h1.61c.46,0,.63,0,.79-.21a1.35,1.35,0,0,0,.51-1.09V85.05c0-.25,0-.88,0-1.73a4.88,4.88,0,0,1,.3-1.43H97.73c2.74.26,3.41.63,3.41,2.66l.09,33.15a2.07,2.07,0,0,1-.67,1.68,5.63,5.63,0,0,1-.6.38Z"/><path class="cls-2" d="M87,120.23H84.21A.27.27,0,0,1,84,120c0-.13,0-.21.16-.26l.22-.08a4.81,4.81,0,0,0,1.43-.76,1.5,1.5,0,0,0,.5-1.31l-.08-33.15c0-1.68-.21-1.94-3.41-2.19a.22.22,0,0,1-.21-.21l0-.46c0-.09,0-.13.09-.17a.35.35,0,0,1,.17-.09h6.36a.24.24,0,0,1,.21.13.28.28,0,0,1,0,.25,4.23,4.23,0,0,0-.42,1.6c0,.85,0,1.48,0,1.73v33.41a1.87,1.87,0,0,1-.68,1.47,1.85,1.85,0,0,1-1.18.3Zm-1.6-.47h1.64c.47,0,.64,0,.8-.21a1.35,1.35,0,0,0,.51-1.09V85.05c0-.25,0-.88,0-1.73a4.58,4.58,0,0,1,.3-1.43H83.24c2.78.26,3.41.59,3.41,2.66l.09,33.15a2,2,0,0,1-.68,1.68l-.63.38Z"/><path class="cls-2" d="M89.1,81.6a4,4,0,0,0-.47,1.68c0,.68,0,1.31,0,1.73v33.41a1.64,1.64,0,0,1-.59,1.26c-.25.25-.5.25-1,.25H84.17a4.91,4.91,0,0,0,1.68-.88,1.87,1.87,0,0,0,.59-1.52l-.08-33.15c0-1.94-.47-2.19-3.67-2.45l0-.46,6.45.13Z"/></g></g></svg>