<svg xmlns="http://www.w3.org/2000/svg" width="143" height="154" viewBox="0 0 143 154"><g fill="none" fill-rule="evenodd"><path fill="#EEE" d="M11.764 29h108.954a2 2 0 0 1 1.99 1.801L135 154H2.624a2 2 0 0 1-1.928-2.53l3.796-13.807a2 2 0 0 0 .069-.432L9.767 30.902A2 2 0 0 1 11.764 29z"/><path fill="#FFF" d="M16.294 26h109.04a2 2 0 0 1 1.988 1.779l12.054 108.276a2 2 0 0 0 .028.175l3.11 15.373a2 2 0 0 1-1.96 2.397H18.334a2 2 0 0 1-1.98-1.712l-2.332-15.998a2 2 0 0 1-.02-.294l.293-108.001a2 2 0 0 1 2-1.995z"/><g fill="#000" transform="rotate(-45 147.069 -72.018)"><rect width="2" height="13" x="6" rx="1"/><rect width="2" height="13" x="6" rx="1" transform="rotate(90 7 6.5)"/></g><g fill="#000" transform="rotate(-45 120.569 -8.042)"><rect width="2" height="13" x="6" rx="1"/><rect width="2" height="13" x="6" rx="1" transform="rotate(90 7 6.5)"/></g><path stroke="#000" stroke-width="2" d="M65.444 108h23.112"/><path stroke="#B0B0B0" stroke-linecap="round" stroke-width="2" d="M48 25v-2.871c0-9.756 7.069-17.89 16.451-19.736A20.964 20.964 0 0 1 68.5 2c8.174 0 15.231 4.698 18.523 11.494A19.75 19.75 0 0 1 89 22.13V25"/><path stroke="#000" stroke-linecap="round" stroke-width="2" d="M55 42V21.5C55 10.178 64.178 1 75.5 1S96 10.178 96 21.5V42"/></g></svg>